<svg width="1440" height="1151" viewBox="0 0 1440 1151" fill="none" xmlns="http://www.w3.org/2000/svg">
<g clip-path="url(#clip0_5489_526)">
<rect width="1440" height="1151" fill="#1F3131"/>
<g opacity="0.5">
<mask id="mask0_5489_526" style="mask-type:luminance" maskUnits="userSpaceOnUse" x="-53" y="566" width="1651" height="355">
<mask id="path-1-inside-1_5489_526" fill="white">
<path d="M-52.6794 920.261C-13.2096 686.772 66.396 657.959 118.595 652.285C133.445 650.682 145.015 656.849 163.763 651.94C186.261 646.044 207.205 630.528 229.9 625.594C257.701 619.55 279.706 632.625 305.065 635.363C352.775 640.543 400.212 607.907 440.2 590.54C482.63 572.137 528.292 555.683 573.164 574.629C612.239 591.132 653.066 602.874 699.986 600.999C727.097 599.914 749.471 586.864 776.163 584.669C810.107 581.881 838.969 594.808 870.693 600.185C926.099 609.559 978.273 576.405 1035.38 573.889C1067.15 572.482 1104.18 570.731 1134.87 577.342C1161.41 583.065 1183.98 599.322 1210.6 604.354C1239.61 609.855 1269.91 598.73 1299.41 605.44C1329.95 612.396 1353.29 632.625 1382.2 643.799C1455.04 671.996 1618.23 815.567 1595.19 920.236"/>
</mask>
<path d="M-52.6794 920.261C-13.2096 686.772 66.396 657.959 118.595 652.285C133.445 650.682 145.015 656.849 163.763 651.94C186.261 646.044 207.205 630.528 229.9 625.594C257.701 619.55 279.706 632.625 305.065 635.363C352.775 640.543 400.212 607.907 440.2 590.54C482.63 572.137 528.292 555.683 573.164 574.629C612.239 591.132 653.066 602.874 699.986 600.999C727.097 599.914 749.471 586.864 776.163 584.669C810.107 581.881 838.969 594.808 870.693 600.185C926.099 609.559 978.273 576.405 1035.38 573.889C1067.15 572.482 1104.18 570.731 1134.87 577.342C1161.41 583.065 1183.98 599.322 1210.6 604.354C1239.61 609.855 1269.91 598.73 1299.41 605.44C1329.95 612.396 1353.29 632.625 1382.2 643.799C1455.04 671.996 1618.23 815.567 1595.19 920.236" fill="white"/>
<path d="M118.595 652.285L118.38 650.297L118.379 650.297L118.595 652.285ZM163.763 651.94L164.27 653.875L164.27 653.875L163.763 651.94ZM229.9 625.594L229.475 623.64L229.9 625.594ZM305.065 635.363L305.281 633.374L305.28 633.374L305.065 635.363ZM440.2 590.54L439.404 588.705L439.403 588.705L440.2 590.54ZM573.164 574.629L573.942 572.786L573.942 572.786L573.164 574.629ZM699.986 600.999L700.066 602.998L700.066 602.998L699.986 600.999ZM776.163 584.669L775.999 582.675L775.999 582.675L776.163 584.669ZM870.693 600.185L870.359 602.157L870.359 602.157L870.693 600.185ZM1035.38 573.889L1035.47 575.887L1035.47 575.887L1035.38 573.889ZM1134.87 577.342L1135.29 575.387L1135.29 575.387L1134.87 577.342ZM1210.6 604.354L1210.97 602.389L1210.97 602.389L1210.6 604.354ZM1299.41 605.44L1299.85 603.49L1299.85 603.49L1299.41 605.44ZM1382.2 643.799L1382.92 641.934L1382.92 641.934L1382.2 643.799ZM-52.6794 920.261L-50.7074 920.594C-30.9991 804.007 -1.31566 738.839 29.7118 702.134C60.646 665.539 93.0555 657.073 118.811 654.274L118.595 652.285L118.379 650.297C91.9355 653.171 58.4427 661.949 26.657 699.551C-5.03563 737.043 -34.8899 803.026 -54.6515 919.928L-52.6794 920.261ZM118.595 652.285L118.81 654.274C125.962 653.502 132.256 654.597 139.513 655.342C146.717 656.081 154.566 656.416 164.27 653.875L163.763 651.94L163.257 650.005C154.212 652.374 146.903 652.079 139.922 651.363C132.994 650.652 126.078 649.466 118.38 650.297L118.595 652.285ZM163.763 651.94L164.27 653.875C175.744 650.868 186.792 645.416 197.624 640.209C208.534 634.964 219.241 629.958 230.325 627.548L229.9 625.594L229.475 623.64C217.864 626.164 206.751 631.383 195.891 636.604C184.953 641.862 174.28 647.117 163.256 650.005L163.763 651.94ZM229.9 625.594L230.325 627.548C243.801 624.619 255.913 626.305 267.941 629.132C279.849 631.932 292.012 635.965 304.851 637.351L305.065 635.363L305.28 633.374C292.76 632.022 281.24 628.15 268.856 625.238C256.591 622.355 243.8 620.525 229.475 623.64L229.9 625.594ZM305.065 635.363L304.849 637.351C329.211 639.996 353.378 632.977 376.309 623.248C387.786 618.379 399.007 612.806 409.821 607.387C420.655 601.956 431.062 596.689 440.997 592.374L440.2 590.54L439.403 588.705C429.345 593.074 418.826 598.399 408.028 603.811C397.21 609.233 386.092 614.752 374.747 619.565C352.036 629.201 328.629 635.91 305.281 633.374L305.065 635.363ZM440.2 590.54L440.996 592.375C483.481 573.948 528.387 557.894 572.386 576.471L573.164 574.629L573.942 572.786C528.197 553.472 481.78 570.326 439.404 588.705L440.2 590.54ZM573.164 574.629L572.386 576.471C611.612 593.038 652.744 604.889 700.066 602.998L699.986 600.999L699.906 599.001C653.388 600.86 612.867 589.226 573.942 572.786L573.164 574.629ZM699.986 600.999L700.066 602.998C713.902 602.444 726.495 598.836 738.803 595.167C751.172 591.479 763.228 587.739 776.326 586.662L776.163 584.669L775.999 582.675C762.405 583.794 749.929 587.676 737.66 591.334C725.33 595.009 713.18 598.47 699.906 599.001L699.986 600.999ZM776.163 584.669L776.326 586.662C792.998 585.293 808.467 587.777 823.811 591.314C839.048 594.826 854.435 599.458 870.359 602.157L870.693 600.185L871.027 598.213C855.227 595.535 840.321 591.015 824.709 587.416C809.205 583.842 793.271 581.257 775.999 582.675L776.163 584.669ZM870.693 600.185L870.359 602.157C898.532 606.924 925.801 600.861 952.927 593.425C980.173 585.955 1007.2 577.132 1035.47 575.887L1035.38 573.889L1035.29 571.89C1006.45 573.161 978.84 582.173 951.87 589.567C924.78 596.993 898.259 602.821 871.026 598.213L870.693 600.185ZM1035.38 573.889L1035.47 575.887C1067.32 574.477 1104.06 572.751 1134.45 579.297L1134.87 577.342L1135.29 575.387C1104.3 568.711 1066.99 570.488 1035.29 571.89L1035.38 573.889ZM1134.87 577.342L1134.45 579.297C1147.48 582.108 1159.57 587.511 1171.9 592.938C1184.17 598.336 1196.66 603.755 1210.23 606.319L1210.6 604.354L1210.97 602.389C1197.92 599.922 1185.83 594.696 1173.51 589.277C1161.27 583.887 1148.8 578.299 1135.29 575.387L1134.87 577.342ZM1210.6 604.354L1210.23 606.319C1225.06 609.131 1240.17 607.686 1254.99 606.437C1269.91 605.179 1284.56 604.113 1298.97 607.39L1299.41 605.44L1299.85 603.49C1284.76 600.056 1269.51 601.198 1254.65 602.451C1239.69 603.712 1225.16 605.079 1210.97 602.389L1210.6 604.354ZM1299.41 605.44L1298.97 607.39C1313.94 610.802 1327.21 617.479 1340.45 624.789C1353.62 632.063 1366.86 640.014 1381.48 645.665L1382.2 643.799L1382.92 641.934C1368.63 636.41 1355.73 628.659 1342.38 621.287C1329.09 613.95 1315.41 607.034 1299.85 603.49L1299.41 605.44ZM1382.2 643.799L1381.48 645.665C1417.5 659.61 1476.26 702.313 1523.16 754.675C1546.59 780.831 1566.97 809.306 1580.06 837.688C1593.15 866.085 1598.87 894.22 1593.23 919.806L1595.19 920.236L1597.14 920.666C1603.03 893.918 1596.99 864.856 1583.69 836.013C1570.38 807.157 1549.73 778.351 1526.14 752.006C1478.99 699.366 1419.74 656.185 1382.92 641.934L1382.2 643.799Z" fill="white" mask="url(#path-1-inside-1_5489_526)"/>
</mask>
<g mask="url(#mask0_5489_526)">
<path d="M-407.93 427.283L-1172.29 1050.96M-380.573 427.283L-1144.93 1050.96M-353.216 427.283L-1117.57 1050.96M-325.859 427.283L-1090.22 1050.96M-298.499 427.283L-1062.86 1050.96M-271.143 427.283L-1035.5 1050.96M-243.785 427.283L-1008.14 1050.96M-216.427 427.283L-980.785 1050.96M-189.071 427.283L-953.429 1050.96M-161.714 427.283L-926.072 1050.96M-134.354 427.283L-898.712 1050.96M-106.997 427.283L-871.355 1050.96M-79.6399 427.283L-843.998 1050.96M-52.2825 427.283L-816.64 1050.96M-24.9254 427.283L-789.283 1050.96M2.43176 427.283L-761.926 1050.96M29.7913 427.283L-734.567 1050.96M57.1485 427.283L-707.21 1050.96M84.5053 427.283L-679.853 1050.96M111.863 427.283L-652.495 1050.96M139.22 427.283L-625.138 1050.96M166.577 427.283L-597.781 1050.96M193.937 427.283L-570.421 1050.96M221.294 427.283L-543.064 1050.96M248.65 427.283L-515.708 1050.96M276.008 427.283L-488.35 1050.96M303.366 427.283L-460.992 1050.96M330.722 427.283L-433.636 1050.96M358.079 427.283L-406.279 1050.96M385.439 427.283L-378.919 1050.96M412.796 427.283L-351.562 1050.96M440.153 427.283L-324.205 1050.96M467.511 427.283L-296.847 1050.96M494.867 427.283L-269.49 1050.96M522.225 427.283L-242.133 1050.96M549.584 427.283L-214.774 1050.96M576.941 427.283L-187.417 1050.96M604.298 427.283L-160.06 1050.96M631.656 427.283L-132.702 1050.96M659.013 427.283L-105.345 1050.96M686.372 427.283L-77.9615 1050.96M713.728 427.283L-50.6049 1050.96M741.086 427.283L-23.2473 1050.96M768.444 427.283L4.11019 1050.96M795.8 427.283L31.467 1050.96M823.158 427.283L58.8242 1050.96M850.517 427.283L86.1837 1050.96M877.874 427.283L113.541 1050.96M905.231 427.283L140.898 1050.96M932.589 427.283L168.255 1050.96M959.946 427.283L195.612 1050.96M987.303 427.283L222.969 1050.96M1014.66 427.283L250.329 1050.96M1042.02 427.283L277.686 1050.96M1069.38 427.283L305.043 1050.96M1096.73 427.283L332.401 1050.96M1124.09 427.283L359.758 1050.96M1151.45 427.283L387.115 1050.96M1178.81 427.283L414.472 1050.96M1206.16 427.283L441.831 1050.96M1233.52 427.283L469.188 1050.96M1260.88 427.283L496.546 1050.96M1288.26 427.283L523.903 1050.96M1315.62 427.283L551.26 1050.96M1342.98 427.283L578.62 1050.96M1370.33 427.283L605.977 1050.96M1397.69 427.283L633.333 1050.96M1425.05 427.283L660.691 1050.96M1452.41 427.283L688.048 1050.96M1479.76 427.283L715.405 1050.96M1507.12 427.283L742.762 1050.96M1534.48 427.283L770.122 1050.96M1561.84 427.283L797.479 1050.96M1589.19 427.283L824.836 1050.96M1616.55 427.283L852.194 1050.96M1643.91 427.283L879.551 1050.96M1671.27 427.283L906.908 1050.96M1698.63 427.283L934.267 1050.96M1725.98 427.283L961.624 1050.96M1753.34 427.283L988.981 1050.96M1780.7 427.283L1016.34 1050.96M1808.05 427.283L1043.7 1050.96M1835.41 427.283L1071.05 1050.96M1862.77 427.283L1098.41 1050.96M1890.13 427.283L1125.77 1050.96M1917.48 427.283L1153.13 1050.96M1944.84 427.283L1180.48 1050.96M1972.2 427.283L1207.84 1050.96M1999.56 427.283L1235.2 1050.96M2026.92 427.283L1262.56 1050.96M2054.27 427.283L1289.91 1050.96M2081.63 427.283L1317.27 1050.96M1663.42 1215.5H-573.186V386.209H1663.42V1215.5Z" stroke="url(#paint0_linear_5489_526)" stroke-width="2" stroke-miterlimit="10"/>
</g>
</g>
<mask id="mask1_5489_526" style="mask-type:luminance" maskUnits="userSpaceOnUse" x="-1013" y="710" width="1913" height="394">
<mask id="path-4-inside-2_5489_526" fill="white">
<path d="M899.156 1103.4C880.358 1099.48 664.089 869.269 650.077 863.127C634.634 856.343 608.263 839.42 584.014 837.521C566.006 836.115 564.97 842.479 545.161 844.527C519.555 847.166 526.684 839.346 506.407 837.126C490.199 835.35 479 848.696 457.439 847.561C443.181 846.796 432.45 838.803 423.816 835.819C402.379 828.418 388.91 821.264 373.048 811.347C351.882 798.125 331.777 783.99 302.816 772.889C292.653 768.991 280.195 765.784 271.438 761.467C272.375 769.435 266.134 778.785 257.771 786.111C242.871 775.01 214.848 756.978 181.052 755.029C154.064 753.475 145.504 758.68 122.168 750.218C93.5768 739.858 79.8611 722.688 57.6839 710.156C35.4328 721.257 24.5786 740.055 16.2899 753.672C12.4909 759.913 13.305 768.374 -3.09964 771.828C-22.6372 775.972 -56.3839 769.559 -74.7867 774.32C-114.997 784.705 -104.833 811.89 -137.642 824.2C-150.445 829.01 -167.985 827.949 -180.393 831.576C-190.532 834.56 -190.137 838.532 -195.367 843.096C-213.671 859.081 -285.531 862.041 -273.887 877.435C-261.356 894.012 -300.012 903.065 -347.992 897.244C-366.518 894.999 -382.084 891.323 -397.181 892.902C-413.931 894.653 -420.345 902.325 -442.399 899.094C-463.047 896.059 -481.104 877.977 -498.125 872.007C-513.395 866.654 -530.121 861.745 -550.818 860.241C-564.904 879.852 -596.726 885.625 -644.386 892.162C-657.288 893.938 -676.159 896.405 -684.941 900.623C-691.108 903.583 -691.084 908.64 -697.867 911.823C-707.316 916.263 -721.155 917.867 -733.637 920.753C-751.349 924.872 -755.247 927.29 -764.325 933.778C-786.033 949.27 -812.355 954.129 -852.047 963.01C-881.55 969.621 -999.22 1091.63 -1012.07 1103.42"/>
</mask>
<path d="M899.156 1103.4C880.358 1099.48 664.089 869.269 650.077 863.127C634.634 856.343 608.263 839.42 584.014 837.521C566.006 836.115 564.97 842.479 545.161 844.527C519.555 847.166 526.684 839.346 506.407 837.126C490.199 835.35 479 848.696 457.439 847.561C443.181 846.796 432.45 838.803 423.816 835.819C402.379 828.418 388.91 821.264 373.048 811.347C351.882 798.125 331.777 783.99 302.816 772.889C292.653 768.991 280.195 765.784 271.438 761.467C272.375 769.435 266.134 778.785 257.771 786.111C242.871 775.01 214.848 756.978 181.052 755.029C154.064 753.475 145.504 758.68 122.168 750.218C93.5768 739.858 79.8611 722.688 57.6839 710.156C35.4328 721.257 24.5786 740.055 16.2899 753.672C12.4909 759.913 13.305 768.374 -3.09964 771.828C-22.6372 775.972 -56.3839 769.559 -74.7867 774.32C-114.997 784.705 -104.833 811.89 -137.642 824.2C-150.445 829.01 -167.985 827.949 -180.393 831.576C-190.532 834.56 -190.137 838.532 -195.367 843.096C-213.671 859.081 -285.531 862.041 -273.887 877.435C-261.356 894.012 -300.012 903.065 -347.992 897.244C-366.518 894.999 -382.084 891.323 -397.181 892.902C-413.931 894.653 -420.345 902.325 -442.399 899.094C-463.047 896.059 -481.104 877.977 -498.125 872.007C-513.395 866.654 -530.121 861.745 -550.818 860.241C-564.904 879.852 -596.726 885.625 -644.386 892.162C-657.288 893.938 -676.159 896.405 -684.941 900.623C-691.108 903.583 -691.084 908.64 -697.867 911.823C-707.316 916.263 -721.155 917.867 -733.637 920.753C-751.349 924.872 -755.247 927.29 -764.325 933.778C-786.033 949.27 -812.355 954.129 -852.047 963.01C-881.55 969.621 -999.22 1091.63 -1012.07 1103.42" fill="white"/>
<path d="M650.077 863.127L649.272 864.958L649.274 864.958L650.077 863.127ZM584.014 837.521L584.17 835.527L584.17 835.527L584.014 837.521ZM545.161 844.527L545.366 846.516L545.367 846.516L545.161 844.527ZM506.407 837.126L506.189 839.114L506.189 839.114L506.407 837.126ZM457.439 847.561L457.332 849.558L457.334 849.558L457.439 847.561ZM423.816 835.819L424.469 833.928L424.469 833.928L423.816 835.819ZM373.048 811.347L374.108 809.651L374.108 809.651L373.048 811.347ZM302.816 772.889L302.1 774.756L302.1 774.756L302.816 772.889ZM271.438 761.467L272.322 759.673L269.021 758.046L269.451 761.701L271.438 761.467ZM257.771 786.111L256.576 787.715L257.873 788.681L259.089 787.616L257.771 786.111ZM181.052 755.029L181.167 753.032L181.167 753.032L181.052 755.029ZM122.168 750.218L122.849 748.338L122.849 748.338L122.168 750.218ZM57.6839 710.156L58.6678 708.415L57.7424 707.892L56.7911 708.367L57.6839 710.156ZM16.2899 753.672L17.9983 754.712L16.2899 753.672ZM-3.09964 771.828L-3.51169 769.871L-3.51468 769.872L-3.09964 771.828ZM-74.7867 774.32L-74.2866 776.256L-74.2858 776.256L-74.7867 774.32ZM-137.642 824.2L-138.345 822.327L-138.346 822.327L-137.642 824.2ZM-180.393 831.576L-180.954 829.656L-180.958 829.657L-180.393 831.576ZM-195.367 843.096L-196.682 841.589L-196.683 841.589L-195.367 843.096ZM-273.887 877.435L-272.292 876.229L-272.292 876.228L-273.887 877.435ZM-347.992 897.244L-347.751 895.258L-347.751 895.258L-347.992 897.244ZM-397.181 892.902L-396.973 894.891L-397.181 892.902ZM-442.399 899.094L-442.69 901.072L-442.689 901.073L-442.399 899.094ZM-498.125 872.007L-497.463 870.12L-497.464 870.12L-498.125 872.007ZM-550.818 860.241L-550.673 858.246L-551.789 858.165L-552.442 859.074L-550.818 860.241ZM-644.386 892.162L-644.658 890.18L-644.659 890.18L-644.386 892.162ZM-684.941 900.623L-684.076 902.426L-684.075 902.426L-684.941 900.623ZM-697.867 911.823L-698.717 910.012L-698.718 910.013L-697.867 911.823ZM-733.637 920.753L-734.088 918.804L-734.09 918.805L-733.637 920.753ZM-764.325 933.778L-763.163 935.406L-763.162 935.405L-764.325 933.778ZM-852.047 963.01L-852.483 961.058L-852.484 961.058L-852.047 963.01ZM899.156 1103.4L899.565 1101.44C899.293 1101.38 898.734 1101.17 897.822 1100.65C896.946 1100.15 895.868 1099.43 894.59 1098.5C892.036 1096.65 888.79 1094.01 884.938 1090.69C877.239 1084.04 867.224 1074.73 855.663 1063.62C832.546 1041.41 803.329 1012.09 774.244 982.689C745.168 953.293 716.222 923.807 693.676 901.294C682.404 890.038 672.717 880.51 665.405 873.6C661.751 870.147 658.673 867.332 656.279 865.277C655.083 864.25 654.041 863.398 653.171 862.746C652.339 862.121 651.546 861.587 650.88 861.295L650.077 863.127L649.274 864.958C649.483 865.05 649.961 865.338 650.77 865.945C651.542 866.524 652.512 867.314 653.674 868.312C655.997 870.306 659.021 873.07 662.658 876.507C669.928 883.378 679.583 892.873 690.85 904.124C713.384 926.626 742.307 956.088 771.4 985.502C800.483 1014.91 829.734 1044.26 852.892 1066.51C864.468 1077.63 874.544 1087 882.324 1093.71C886.212 1097.07 889.554 1099.79 892.24 1101.74C893.582 1102.72 894.787 1103.52 895.833 1104.12C896.842 1104.7 897.844 1105.17 898.748 1105.36L899.156 1103.4ZM650.077 863.127L650.881 861.296C647.087 859.629 642.603 857.33 637.561 854.751C632.541 852.182 627.004 849.353 621.184 846.675C609.572 841.332 596.656 836.505 584.17 835.527L584.014 837.521L583.858 839.515C595.622 840.436 608.016 845.02 619.512 850.309C625.246 852.947 630.712 855.74 635.739 858.311C640.742 860.872 645.346 863.233 649.272 864.958L650.077 863.127ZM584.014 837.521L584.17 835.527C574.84 834.798 569.806 836.096 564.627 837.832C559.614 839.513 554.606 841.54 544.955 842.537L545.161 844.527L545.367 846.516C555.525 845.466 560.94 843.287 565.898 841.625C570.692 840.018 575.18 838.837 583.858 839.515L584.014 837.521ZM545.161 844.527L544.956 842.537C532.366 843.835 528.156 842.533 524.653 840.847C522.891 839.999 520.805 838.762 518.14 837.726C515.371 836.65 511.841 835.709 506.624 835.138L506.407 837.126L506.189 839.114C511.111 839.653 514.294 840.522 516.691 841.454C519.193 842.427 520.727 843.396 522.918 844.451C527.321 846.57 532.35 847.858 545.366 846.516L545.161 844.527ZM506.407 837.126L506.624 835.138C497.938 834.186 490.606 837.314 483.195 840.243C475.706 843.203 467.862 846.107 457.545 845.564L457.439 847.561L457.334 849.558C468.577 850.15 477.113 846.948 484.665 843.963C492.296 840.947 498.667 838.29 506.189 839.114L506.407 837.126ZM457.439 847.561L457.546 845.564C450.765 845.2 444.773 843.116 439.332 840.695C436.598 839.479 434.054 838.202 431.577 837.004C429.132 835.822 426.749 834.717 424.469 833.928L423.816 835.819L423.162 837.709C425.2 838.413 427.396 839.426 429.837 840.606C432.246 841.77 434.895 843.099 437.705 844.35C443.352 846.862 449.855 849.157 457.332 849.558L457.439 847.561ZM423.816 835.819L424.469 833.928C403.203 826.587 389.87 819.506 374.108 809.651L373.048 811.347L371.988 813.043C387.949 823.022 401.555 830.249 423.163 837.709L423.816 835.819ZM373.048 811.347L374.108 809.651C353.03 796.484 332.721 782.209 303.532 771.021L302.816 772.889L302.1 774.756C330.834 785.77 350.734 799.766 371.988 813.043L373.048 811.347ZM302.816 772.889L303.532 771.021C298.396 769.052 292.663 767.25 287.233 765.438C281.753 763.61 276.566 761.765 272.322 759.673L271.438 761.467L270.553 763.261C275.067 765.486 280.487 767.404 285.967 769.232C291.496 771.078 297.073 772.828 302.1 774.756L302.816 772.889ZM271.438 761.467L269.451 761.701C269.85 765.092 268.733 768.977 266.366 773.019C264.011 777.04 260.515 781.048 256.453 784.607L257.771 786.111L259.089 787.616C263.39 783.848 267.196 779.518 269.818 775.04C272.427 770.584 273.962 765.81 273.424 761.234L271.438 761.467ZM257.771 786.111L258.966 784.507C243.982 773.344 215.565 755.016 181.167 753.032L181.052 755.029L180.937 757.025C214.131 758.94 241.761 776.677 256.576 787.715L257.771 786.111ZM181.052 755.029L181.167 753.032C167.608 752.251 158.439 753.166 150.229 753.214C142.004 753.262 134.268 752.478 122.849 748.338L122.168 750.218L121.486 752.099C133.404 756.42 141.617 757.264 150.252 757.214C158.904 757.163 167.507 756.252 180.937 757.025L181.052 755.029ZM122.168 750.218L122.849 748.338C108.807 743.25 98.4055 736.489 88.7018 729.388C79.0438 722.319 69.8928 714.758 58.6678 708.415L57.6839 710.156L56.7 711.898C67.6522 718.086 76.4475 725.376 86.3394 732.615C96.1856 739.821 106.937 746.826 121.486 752.099L122.168 750.218ZM57.6839 710.156L56.7911 708.367C33.9542 719.76 22.8374 739.069 14.5815 752.632L16.2899 753.672L17.9983 754.712C26.3197 741.041 36.9115 722.755 58.5768 711.946L57.6839 710.156ZM16.2899 753.672L14.5815 752.632C13.5316 754.357 12.8036 756.232 12.1167 757.891C11.4071 759.605 10.7088 761.18 9.68216 762.651C7.71848 765.465 4.32095 768.222 -3.51169 769.871L-3.09964 771.828L-2.68765 773.785C5.88443 771.981 10.2821 768.781 12.9624 764.94C14.2575 763.084 15.0934 761.158 15.8123 759.421C16.5539 757.63 17.1488 756.108 17.9983 754.712L16.2899 753.672ZM-3.09964 771.828L-3.51468 769.872C-12.9835 771.88 -26.0089 771.338 -39.2943 770.844C-52.3678 770.358 -65.7403 769.913 -75.2877 772.383L-74.7867 774.32L-74.2858 776.256C-65.4303 773.965 -52.7281 774.347 -39.4431 774.841C-26.37 775.328 -12.7533 775.92 -2.68466 773.785L-3.09964 771.828ZM-74.7867 774.32L-75.2869 772.383C-85.5762 775.041 -92.7472 778.803 -98.2125 783.206C-103.663 787.598 -107.322 792.555 -110.641 797.409C-117.259 807.089 -122.607 816.422 -138.345 822.327L-137.642 824.2L-136.94 826.072C-119.869 819.667 -113.893 809.253 -107.339 799.667C-104.072 794.888 -100.681 790.332 -95.7029 786.321C-90.7394 782.322 -84.1022 778.791 -74.2866 776.256L-74.7867 774.32ZM-137.642 824.2L-138.346 822.327C-144.473 824.63 -151.811 825.55 -159.374 826.343C-166.818 827.122 -174.532 827.779 -180.954 829.656L-180.393 831.576L-179.832 833.495C-173.846 831.746 -166.587 831.12 -158.957 830.321C-151.448 829.534 -143.615 828.58 -136.939 826.072L-137.642 824.2ZM-180.393 831.576L-180.958 829.657C-186.313 831.233 -189.075 833.139 -191.178 835.373C-192.158 836.415 -193.009 837.551 -193.803 838.533C-194.625 839.551 -195.498 840.556 -196.682 841.589L-195.367 843.096L-194.052 844.603C-192.621 843.354 -191.583 842.151 -190.691 841.047C-189.771 839.908 -189.107 839.009 -188.265 838.114C-186.722 836.475 -184.612 834.903 -179.828 833.494L-180.393 831.576ZM-195.367 843.096L-196.683 841.589C-200.902 845.274 -208.441 848.359 -217.575 851.126C-226.639 853.873 -236.883 856.201 -246.339 858.546C-255.69 860.865 -264.379 863.225 -269.999 866.034C-272.767 867.418 -275.159 869.083 -276.353 871.219C-276.982 872.345 -277.277 873.599 -277.11 874.936C-276.947 876.245 -276.359 877.482 -275.483 878.641L-273.887 877.435L-272.292 876.228C-272.871 875.463 -273.087 874.873 -273.141 874.44C-273.192 874.034 -273.119 873.631 -272.862 873.171C-272.283 872.137 -270.828 870.92 -268.211 869.612C-263.059 867.037 -254.823 864.771 -245.376 862.428C-236.034 860.111 -225.609 857.74 -216.415 854.954C-207.292 852.19 -198.985 848.91 -194.052 844.602L-195.367 843.096ZM-273.887 877.435L-275.483 878.641C-274.084 880.491 -273.539 882.052 -273.505 883.337C-273.472 884.588 -273.914 885.814 -274.96 887.051C-277.151 889.643 -281.787 892.021 -288.744 893.801C-302.512 897.325 -323.899 898.152 -347.751 895.258L-347.992 897.244L-348.233 899.229C-324.104 902.157 -302.174 901.368 -287.752 897.676C-280.613 895.849 -274.936 893.219 -271.905 889.633C-270.339 887.781 -269.443 885.626 -269.506 883.231C-269.569 880.87 -270.558 878.522 -272.292 876.229L-273.887 877.435ZM-347.992 897.244L-347.751 895.258C-352.354 894.7 -356.777 894.053 -361.078 893.418C-365.371 892.783 -369.551 892.159 -373.627 891.654C-381.777 890.645 -389.618 890.1 -397.389 890.913L-397.181 892.902L-396.973 894.891C-389.647 894.125 -382.157 894.628 -374.118 895.624C-370.099 896.121 -365.971 896.738 -361.663 897.375C-357.363 898.01 -352.893 898.664 -348.233 899.229L-347.992 897.244ZM-397.181 892.902L-397.389 890.913C-405.973 891.81 -412.113 894.268 -418.32 895.935C-424.552 897.608 -431.391 898.685 -442.109 897.115L-442.399 899.094L-442.689 901.073C-431.353 902.734 -423.959 901.591 -417.283 899.798C-410.582 897.999 -405.139 895.745 -396.973 894.891L-397.181 892.902ZM-442.399 899.094L-442.108 897.115C-451.992 895.662 -461.364 890.586 -470.578 884.946C-479.644 879.396 -488.69 873.197 -497.463 870.12L-498.125 872.007L-498.787 873.895C-490.54 876.787 -482.046 882.615 -472.666 888.357C-463.434 894.009 -453.453 899.491 -442.69 901.072L-442.399 899.094ZM-498.125 872.007L-497.464 870.12C-512.813 864.739 -529.726 859.769 -550.673 858.246L-550.818 860.241L-550.963 862.235C-530.515 863.722 -513.978 868.57 -498.787 873.895L-498.125 872.007ZM-550.818 860.241L-552.442 859.074C-559.108 868.355 -570.086 874.529 -585.587 879.189C-601.089 883.849 -620.807 886.909 -644.658 890.18L-644.386 892.162L-644.114 894.143C-620.305 890.878 -600.282 887.783 -584.436 883.019C-568.589 878.256 -556.613 871.737 -549.193 861.407L-550.818 860.241ZM-644.386 892.162L-644.659 890.18C-651.093 891.066 -659.088 892.134 -666.57 893.51C-673.998 894.875 -681.15 896.583 -685.807 898.82L-684.941 900.623L-684.075 902.426C-679.95 900.444 -673.276 898.81 -665.847 897.444C-658.473 896.088 -650.58 895.033 -644.113 894.143L-644.386 892.162ZM-684.941 900.623L-685.807 898.82C-689.35 900.521 -691.135 902.874 -692.74 904.896C-694.311 906.877 -695.763 908.626 -698.717 910.012L-697.867 911.823L-697.018 913.633C-693.188 911.837 -691.26 909.467 -689.606 907.383C-687.986 905.341 -686.7 903.686 -684.076 902.426L-684.941 900.623ZM-697.867 911.823L-698.718 910.013C-703.221 912.129 -708.851 913.602 -715.03 914.914C-721.085 916.2 -727.861 917.364 -734.088 918.804L-733.637 920.753L-733.186 922.701C-726.931 921.255 -720.546 920.175 -714.199 918.827C-707.976 917.506 -701.962 915.957 -697.017 913.633L-697.867 911.823ZM-733.637 920.753L-734.09 918.805C-742.979 920.872 -748.532 922.541 -753.034 924.551C-757.558 926.571 -760.944 928.903 -765.488 932.151L-764.325 933.778L-763.162 935.405C-758.627 932.164 -755.526 930.044 -751.403 928.203C-747.259 926.353 -742.007 924.753 -733.184 922.701L-733.637 920.753ZM-764.325 933.778L-765.487 932.15C-786.783 947.348 -812.6 952.135 -852.483 961.058L-852.047 963.01L-851.61 964.962C-812.11 956.124 -785.284 951.192 -763.163 935.406L-764.325 933.778ZM-852.047 963.01L-852.484 961.058C-856.554 961.97 -861.88 964.782 -867.966 968.787C-874.112 972.832 -881.238 978.234 -888.955 984.531C-904.392 997.129 -922.309 1013.41 -939.677 1029.82C-957.051 1046.24 -973.9 1062.82 -987.204 1076.02C-1000.54 1089.26 -1010.25 1099.04 -1013.42 1101.95L-1012.07 1103.42L-1010.72 1104.9C-1007.47 1101.91 -997.646 1092.02 -984.386 1078.86C-971.09 1065.66 -954.268 1049.11 -936.93 1032.73C-919.586 1016.34 -901.751 1000.14 -886.426 987.63C-878.761 981.375 -871.753 976.068 -865.767 972.129C-859.721 968.15 -854.915 965.703 -851.609 964.962L-852.047 963.01Z" fill="white" mask="url(#path-4-inside-2_5489_526)"/>
</mask>
<g mask="url(#mask1_5489_526)">
<path d="M-962.435 656.256L-1726.79 1279.93M-935.078 656.256L-1699.44 1279.93M-907.721 656.256L-1672.08 1279.93M-880.364 656.256L-1644.72 1279.93M-853.004 656.256L-1617.36 1279.93M-825.648 656.256L-1590.01 1279.93M-798.29 656.256L-1562.65 1279.93M-770.933 656.256L-1535.29 1279.93M-743.576 656.256L-1507.93 1279.93M-716.219 656.256L-1480.58 1279.93M-688.859 656.256L-1453.22 1279.93M-661.503 656.256L-1425.86 1279.93M-634.145 656.256L-1398.5 1279.93M-606.788 656.256L-1371.15 1279.93M-579.43 656.256L-1343.79 1279.93M-552.073 656.256L-1316.43 1279.93M-524.714 656.256L-1289.07 1279.93M-497.357 656.256L-1261.71 1279.93M-470 656.256L-1234.33 1279.93M-442.643 656.256L-1206.98 1279.93M-415.286 656.256L-1179.62 1279.93M-387.926 656.256L-1152.26 1279.93M-360.57 656.256L-1124.9 1279.93M-333.212 656.256L-1097.55 1279.93M-305.855 656.256L-1070.19 1279.93M-278.498 656.256L-1042.83 1279.93M-251.141 656.256L-1015.47 1279.93M-223.781 656.256L-988.114 1279.93M-196.424 656.256L-960.757 1279.93M-169.067 656.256L-933.4 1279.93M-141.709 656.256L-906.043 1279.93M-114.352 656.256L-878.685 1279.93M-86.9954 656.256L-851.329 1279.93M-59.6356 656.256L-823.969 1279.93M-32.2788 656.256L-796.612 1279.93M-4.92188 656.256L-769.255 1279.93M22.4356 656.256L-741.898 1279.93M49.7932 656.256L-714.54 1279.93M77.1499 656.256L-687.183 1279.93M104.532 656.256L-659.826 1279.93M131.891 656.256L-632.467 1279.93M159.248 656.256L-605.11 1279.93M186.605 656.256L-577.753 1279.93M213.963 656.256L-550.395 1279.93M241.32 656.256L-523.038 1279.93M268.677 656.256L-495.681 1279.93M296.037 656.256L-468.321 1279.93M323.394 656.256L-440.964 1279.93M350.751 656.256L-413.607 1279.93M378.108 656.256L-386.25 1279.93M405.465 656.256L-358.893 1279.93M432.822 656.256L-331.536 1279.93M460.182 656.256L-304.176 1279.93M487.539 656.256L-276.819 1279.93M514.896 656.256L-249.462 1279.93M542.253 656.256L-222.105 1279.93M569.611 656.256L-194.747 1279.93M596.968 656.256L-167.39 1279.93M624.327 656.256L-140.031 1279.93M651.684 656.256L-112.674 1279.93M679.041 656.256L-85.317 1279.93M706.399 656.256L-57.9594 1279.93M733.756 656.256L-30.602 1279.93M761.113 656.256L-3.24515 1279.93M788.47 656.256L24.112 1279.93M815.83 656.256L51.4715 1279.93M843.186 656.256L78.8283 1279.93M870.543 656.256L106.186 1279.93M897.901 656.256L133.543 1279.93M925.258 656.256L160.9 1279.93M952.615 656.256L188.257 1279.93M979.975 656.256L215.617 1279.93M1007.33 656.256L242.974 1279.93M1034.69 656.256L270.331 1279.93M1062.05 656.256L297.688 1279.93M1089.4 656.256L325.045 1279.93M1116.76 656.256L352.403 1279.93M1144.12 656.256L379.762 1279.93M1171.48 656.256L407.119 1279.93M1198.83 656.256L434.476 1279.93M1226.19 656.256L461.833 1279.93M1253.55 656.256L489.215 1279.93M1280.91 656.256L516.574 1279.93M1308.27 656.256L543.931 1279.93M1335.62 656.256L571.289 1279.93M1362.98 656.256L598.646 1279.93M1390.34 656.256L626.003 1279.93M1417.69 656.256L653.36 1279.93M1445.05 656.256L680.72 1279.93M1472.41 656.256L708.077 1279.93M1499.77 656.256L735.433 1279.93M1527.12 656.256L762.791 1279.93" stroke="url(#paint1_linear_5489_526)" stroke-width="2" stroke-miterlimit="10"/>
</g>
<mask id="mask2_5489_526" style="mask-type:luminance" maskUnits="userSpaceOnUse" x="27" y="710" width="1913" height="394">
<mask id="path-7-inside-3_5489_526" fill="white">
<path d="M1939.04 1103.4C1920.24 1099.48 1703.97 869.269 1689.96 863.127C1674.52 856.343 1648.15 839.42 1623.9 837.521C1605.89 836.115 1604.86 842.479 1585.05 844.527C1559.44 847.166 1566.57 839.346 1546.29 837.126C1530.09 835.35 1518.89 848.696 1497.33 847.561C1483.07 846.796 1472.34 838.803 1463.7 835.819C1442.27 828.418 1428.8 821.264 1412.93 811.347C1391.77 798.125 1371.66 783.99 1342.7 772.889C1332.54 768.991 1320.08 765.784 1311.32 761.467C1312.26 769.435 1306.02 778.785 1297.66 786.111C1282.76 775.01 1254.73 756.978 1220.94 755.029C1193.95 753.475 1185.39 758.68 1162.05 750.218C1133.46 739.858 1119.75 722.688 1097.57 710.156C1075.32 721.257 1064.46 740.055 1056.18 753.672C1052.38 759.913 1053.19 768.374 1036.79 771.828C1017.25 775.972 983.502 769.559 965.1 774.32C924.89 784.705 935.053 811.89 902.244 824.2C889.441 829.01 871.901 827.949 859.493 831.576C849.354 834.56 849.749 838.532 844.519 843.096C826.215 859.081 754.355 862.041 765.999 877.435C778.531 894.012 739.875 903.065 691.894 897.244C673.368 894.999 657.802 891.323 642.705 892.902C625.955 894.653 619.541 902.325 597.487 899.094C576.84 896.059 558.782 877.977 541.761 872.007C526.491 866.654 509.766 861.745 489.069 860.241C474.983 879.852 443.16 885.625 395.5 892.162C382.599 893.938 363.727 896.405 354.945 900.623C348.778 903.583 348.803 908.64 342.019 911.823C332.571 916.263 318.732 917.867 306.249 920.753C288.537 924.872 284.639 927.29 275.561 933.778C253.853 949.27 227.532 954.129 187.84 963.01C158.336 969.621 40.6666 1091.63 27.8142 1103.42"/>
</mask>
<path d="M1939.04 1103.4C1920.24 1099.48 1703.97 869.269 1689.96 863.127C1674.52 856.343 1648.15 839.42 1623.9 837.521C1605.89 836.115 1604.86 842.479 1585.05 844.527C1559.44 847.166 1566.57 839.346 1546.29 837.126C1530.09 835.35 1518.89 848.696 1497.33 847.561C1483.07 846.796 1472.34 838.803 1463.7 835.819C1442.27 828.418 1428.8 821.264 1412.93 811.347C1391.77 798.125 1371.66 783.99 1342.7 772.889C1332.54 768.991 1320.08 765.784 1311.32 761.467C1312.26 769.435 1306.02 778.785 1297.66 786.111C1282.76 775.01 1254.73 756.978 1220.94 755.029C1193.95 753.475 1185.39 758.68 1162.05 750.218C1133.46 739.858 1119.75 722.688 1097.57 710.156C1075.32 721.257 1064.46 740.055 1056.18 753.672C1052.38 759.913 1053.19 768.374 1036.79 771.828C1017.25 775.972 983.502 769.559 965.1 774.32C924.89 784.705 935.053 811.89 902.244 824.2C889.441 829.01 871.901 827.949 859.493 831.576C849.354 834.56 849.749 838.532 844.519 843.096C826.215 859.081 754.355 862.041 765.999 877.435C778.531 894.012 739.875 903.065 691.894 897.244C673.368 894.999 657.802 891.323 642.705 892.902C625.955 894.653 619.541 902.325 597.487 899.094C576.84 896.059 558.782 877.977 541.761 872.007C526.491 866.654 509.766 861.745 489.069 860.241C474.983 879.852 443.16 885.625 395.5 892.162C382.599 893.938 363.727 896.405 354.945 900.623C348.778 903.583 348.803 908.64 342.019 911.823C332.571 916.263 318.732 917.867 306.249 920.753C288.537 924.872 284.639 927.29 275.561 933.778C253.853 949.27 227.532 954.129 187.84 963.01C158.336 969.621 40.6666 1091.63 27.8142 1103.42" fill="white"/>
<path d="M1689.96 863.127L1689.16 864.958L1689.16 864.958L1689.96 863.127ZM1623.9 837.521L1624.06 835.527L1624.06 835.527L1623.9 837.521ZM1585.05 844.527L1585.25 846.516L1585.25 846.516L1585.05 844.527ZM1546.29 837.126L1546.07 839.114L1546.08 839.114L1546.29 837.126ZM1497.33 847.561L1497.22 849.558L1497.22 849.558L1497.33 847.561ZM1463.7 835.819L1464.36 833.928L1464.35 833.928L1463.7 835.819ZM1412.93 811.347L1413.99 809.651L1413.99 809.651L1412.93 811.347ZM1342.7 772.889L1341.99 774.756L1341.99 774.756L1342.7 772.889ZM1311.32 761.467L1312.21 759.673L1308.91 758.046L1309.34 761.701L1311.32 761.467ZM1297.66 786.111L1296.46 787.715L1297.76 788.681L1298.98 787.616L1297.66 786.111ZM1220.94 755.029L1221.05 753.032L1221.05 753.032L1220.94 755.029ZM1162.05 750.218L1162.74 748.338L1162.74 748.338L1162.05 750.218ZM1097.57 710.156L1098.55 708.415L1097.63 707.892L1096.68 708.367L1097.57 710.156ZM1056.18 753.672L1057.88 754.712L1056.18 753.672ZM1036.79 771.828L1036.37 769.871L1036.37 769.872L1036.79 771.828ZM965.1 774.32L965.6 776.256L965.6 776.256L965.1 774.32ZM902.244 824.2L901.541 822.327L901.54 822.327L902.244 824.2ZM859.493 831.576L858.932 829.656L858.928 829.657L859.493 831.576ZM844.519 843.096L843.204 841.589L843.204 841.589L844.519 843.096ZM765.999 877.435L767.594 876.229L767.594 876.228L765.999 877.435ZM691.894 897.244L692.135 895.258L692.135 895.258L691.894 897.244ZM642.705 892.902L642.913 894.891L642.705 892.902ZM597.487 899.094L597.196 901.072L597.197 901.073L597.487 899.094ZM541.761 872.007L542.423 870.12L542.423 870.12L541.761 872.007ZM489.069 860.241L489.214 858.246L488.097 858.165L487.444 859.074L489.069 860.241ZM395.5 892.162L395.229 890.18L395.228 890.18L395.5 892.162ZM354.945 900.623L355.811 902.426L355.811 902.426L354.945 900.623ZM342.019 911.823L341.169 910.012L341.168 910.013L342.019 911.823ZM306.249 920.753L305.799 918.804L305.796 918.805L306.249 920.753ZM275.561 933.778L276.723 935.406L276.724 935.405L275.561 933.778ZM187.84 963.01L187.403 961.058L187.402 961.058L187.84 963.01ZM1939.04 1103.4L1939.45 1101.44C1939.18 1101.38 1938.62 1101.17 1937.71 1100.65C1936.83 1100.15 1935.75 1099.43 1934.48 1098.5C1931.92 1096.65 1928.68 1094.01 1924.82 1090.69C1917.13 1084.04 1907.11 1074.73 1895.55 1063.62C1872.43 1041.41 1843.21 1012.09 1814.13 982.689C1785.05 953.293 1756.11 923.807 1733.56 901.294C1722.29 890.038 1712.6 880.51 1705.29 873.6C1701.64 870.147 1698.56 867.332 1696.17 865.277C1694.97 864.25 1693.93 863.398 1693.06 862.746C1692.23 862.121 1691.43 861.587 1690.77 861.295L1689.96 863.127L1689.16 864.958C1689.37 865.05 1689.85 865.338 1690.66 865.945C1691.43 866.524 1692.4 867.314 1693.56 868.312C1695.88 870.306 1698.91 873.07 1702.54 876.507C1709.81 883.378 1719.47 892.873 1730.74 904.124C1753.27 926.626 1782.19 956.088 1811.29 985.502C1840.37 1014.91 1869.62 1044.26 1892.78 1066.51C1904.35 1077.63 1914.43 1087 1922.21 1093.71C1926.1 1097.07 1929.44 1099.79 1932.13 1101.74C1933.47 1102.72 1934.67 1103.52 1935.72 1104.12C1936.73 1104.7 1937.73 1105.17 1938.63 1105.36L1939.04 1103.4ZM1689.96 863.127L1690.77 861.296C1686.97 859.629 1682.49 857.33 1677.45 854.751C1672.43 852.182 1666.89 849.353 1661.07 846.675C1649.46 841.332 1636.54 836.505 1624.06 835.527L1623.9 837.521L1623.74 839.515C1635.51 840.436 1647.9 845.02 1659.4 850.309C1665.13 852.947 1670.6 855.74 1675.62 858.311C1680.63 860.872 1685.23 863.233 1689.16 864.958L1689.96 863.127ZM1623.9 837.521L1624.06 835.527C1614.73 834.798 1609.69 836.096 1604.51 837.832C1599.5 839.513 1594.49 841.54 1584.84 842.537L1585.05 844.527L1585.25 846.516C1595.41 845.466 1600.83 843.287 1605.78 841.625C1610.58 840.018 1615.07 838.837 1623.74 839.515L1623.9 837.521ZM1585.05 844.527L1584.84 842.537C1572.25 843.835 1568.04 842.533 1564.54 840.847C1562.78 839.999 1560.69 838.762 1558.03 837.726C1555.26 836.65 1551.73 835.709 1546.51 835.138L1546.29 837.126L1546.08 839.114C1551 839.653 1554.18 840.522 1556.58 841.454C1559.08 842.427 1560.61 843.396 1562.8 844.451C1567.21 846.57 1572.24 847.858 1585.25 846.516L1585.05 844.527ZM1546.29 837.126L1546.51 835.138C1537.82 834.186 1530.49 837.314 1523.08 840.243C1515.59 843.203 1507.75 846.107 1497.43 845.564L1497.33 847.561L1497.22 849.558C1508.46 850.15 1517 846.948 1524.55 843.963C1532.18 840.947 1538.55 838.29 1546.07 839.114L1546.29 837.126ZM1497.33 847.561L1497.43 845.564C1490.65 845.2 1484.66 843.116 1479.22 840.695C1476.48 839.479 1473.94 838.202 1471.46 837.004C1469.02 835.822 1466.64 834.717 1464.36 833.928L1463.7 835.819L1463.05 837.709C1465.09 838.413 1467.28 839.426 1469.72 840.606C1472.13 841.77 1474.78 843.099 1477.59 844.35C1483.24 846.862 1489.74 849.157 1497.22 849.558L1497.33 847.561ZM1463.7 835.819L1464.35 833.928C1443.09 826.587 1429.76 819.506 1413.99 809.651L1412.93 811.347L1411.87 813.043C1427.84 823.022 1441.44 830.249 1463.05 837.709L1463.7 835.819ZM1412.93 811.347L1413.99 809.651C1392.92 796.484 1372.61 782.209 1343.42 771.021L1342.7 772.889L1341.99 774.756C1370.72 785.77 1390.62 799.766 1411.87 813.043L1412.93 811.347ZM1342.7 772.889L1343.42 771.021C1338.28 769.052 1332.55 767.25 1327.12 765.438C1321.64 763.61 1316.45 761.765 1312.21 759.673L1311.32 761.467L1310.44 763.261C1314.95 765.486 1320.37 767.404 1325.85 769.232C1331.38 771.078 1336.96 772.828 1341.99 774.756L1342.7 772.889ZM1311.32 761.467L1309.34 761.701C1309.74 765.092 1308.62 768.977 1306.25 773.019C1303.9 777.04 1300.4 781.048 1296.34 784.607L1297.66 786.111L1298.98 787.616C1303.28 783.848 1307.08 779.518 1309.7 775.04C1312.31 770.584 1313.85 765.81 1313.31 761.234L1311.32 761.467ZM1297.66 786.111L1298.85 784.507C1283.87 773.344 1255.45 755.016 1221.05 753.032L1220.94 755.029L1220.82 757.025C1254.02 758.94 1281.65 776.677 1296.46 787.715L1297.66 786.111ZM1220.94 755.029L1221.05 753.032C1207.49 752.251 1198.32 753.166 1190.12 753.214C1181.89 753.262 1174.15 752.478 1162.74 748.338L1162.05 750.218L1161.37 752.099C1173.29 756.42 1181.5 757.264 1190.14 757.214C1198.79 757.163 1207.39 756.252 1220.82 757.025L1220.94 755.029ZM1162.05 750.218L1162.74 748.338C1148.69 743.25 1138.29 736.489 1128.59 729.388C1118.93 722.319 1109.78 714.758 1098.55 708.415L1097.57 710.156L1096.59 711.898C1107.54 718.086 1116.33 725.376 1126.23 732.615C1136.07 739.821 1146.82 746.826 1161.37 752.099L1162.05 750.218ZM1097.57 710.156L1096.68 708.367C1073.84 719.76 1062.72 739.069 1054.47 752.632L1056.18 753.672L1057.88 754.712C1066.21 741.041 1076.8 722.755 1098.46 711.946L1097.57 710.156ZM1056.18 753.672L1054.47 752.632C1053.42 754.357 1052.69 756.232 1052 757.891C1051.29 759.605 1050.6 761.18 1049.57 762.651C1047.6 765.465 1044.21 768.222 1036.37 769.871L1036.79 771.828L1037.2 773.785C1045.77 771.981 1050.17 768.781 1052.85 764.94C1054.14 763.084 1054.98 761.158 1055.7 759.421C1056.44 757.63 1057.04 756.108 1057.88 754.712L1056.18 753.672ZM1036.79 771.828L1036.37 769.872C1026.9 771.88 1013.88 771.338 1000.59 770.844C987.518 770.358 974.146 769.913 964.599 772.383L965.1 774.32L965.6 776.256C974.456 773.965 987.158 774.347 1000.44 774.841C1013.52 775.328 1027.13 775.92 1037.2 773.785L1036.79 771.828ZM965.1 774.32L964.599 772.383C954.31 775.041 947.139 778.803 941.674 783.206C936.223 787.598 932.565 792.555 929.245 797.409C922.627 807.089 917.28 816.422 901.541 822.327L902.244 824.2L902.946 826.072C920.017 819.667 925.993 809.253 932.547 799.667C935.815 794.888 939.205 790.332 944.183 786.321C949.147 782.322 955.784 778.791 965.6 776.256L965.1 774.32ZM902.244 824.2L901.54 822.327C895.413 824.63 888.075 825.55 880.512 826.343C873.069 827.122 865.354 827.779 858.932 829.656L859.493 831.576L860.054 833.495C866.04 831.746 873.3 831.12 880.929 830.321C888.439 829.534 896.272 828.58 902.947 826.072L902.244 824.2ZM859.493 831.576L858.928 829.657C853.573 831.233 850.811 833.139 848.709 835.373C847.728 836.415 846.877 837.551 846.084 838.533C845.262 839.551 844.388 840.556 843.204 841.589L844.519 843.096L845.834 844.603C847.265 843.354 848.303 842.151 849.195 841.047C850.115 839.908 850.78 839.009 851.622 838.114C853.164 836.475 855.274 834.903 860.058 833.494L859.493 831.576ZM844.519 843.096L843.204 841.589C838.985 845.274 831.445 848.359 822.311 851.126C813.247 853.873 803.003 856.201 793.547 858.546C784.196 860.865 775.507 863.225 769.887 866.034C767.119 867.418 764.728 869.083 763.533 871.219C762.904 872.345 762.609 873.599 762.776 874.936C762.94 876.245 763.527 877.482 764.404 878.641L765.999 877.435L767.594 876.228C767.015 875.463 766.799 874.873 766.745 874.44C766.695 874.034 766.768 873.631 767.025 873.171C767.603 872.137 769.058 870.92 771.676 869.612C776.827 867.037 785.064 864.771 794.51 862.428C803.852 860.111 814.277 857.74 823.471 854.954C832.595 852.19 840.902 848.91 845.835 844.602L844.519 843.096ZM765.999 877.435L764.403 878.641C765.802 880.491 766.347 882.052 766.381 883.337C766.415 884.588 765.972 885.814 764.927 887.051C762.735 889.643 758.099 892.021 751.143 893.801C737.375 897.325 715.987 898.152 692.135 895.258L691.894 897.244L691.653 899.229C715.782 902.157 737.712 901.368 752.135 897.676C759.273 895.849 764.95 893.219 767.981 889.633C769.547 887.781 770.444 885.626 770.38 883.231C770.317 880.87 769.328 878.522 767.594 876.229L765.999 877.435ZM691.894 897.244L692.135 895.258C687.532 894.7 683.109 894.053 678.808 893.418C674.516 892.783 670.335 892.159 666.26 891.654C658.109 890.645 650.268 890.1 642.497 890.913L642.705 892.902L642.913 894.891C650.239 894.125 657.73 894.628 665.768 895.624C669.787 896.121 673.915 896.738 678.223 897.375C682.523 898.01 686.993 898.664 691.654 899.229L691.894 897.244ZM642.705 892.902L642.497 890.913C633.913 891.81 627.774 894.268 621.566 895.935C615.335 897.608 608.495 898.685 597.777 897.115L597.487 899.094L597.197 901.073C608.533 902.734 615.928 901.591 622.604 899.798C629.304 897.999 634.747 895.745 642.913 894.891L642.705 892.902ZM597.487 899.094L597.778 897.115C587.894 895.662 578.523 890.586 569.308 884.946C560.243 879.396 551.197 873.197 542.423 870.12L541.761 872.007L541.099 873.895C549.346 876.787 557.84 882.615 567.22 888.357C576.452 894.009 586.433 899.491 597.196 901.072L597.487 899.094ZM541.761 872.007L542.423 870.12C527.073 864.739 510.16 859.769 489.214 858.246L489.069 860.241L488.924 862.235C509.371 863.722 525.909 868.57 541.099 873.895L541.761 872.007ZM489.069 860.241L487.444 859.074C480.778 868.355 469.8 874.529 454.299 879.189C438.798 883.849 419.079 886.909 395.229 890.18L395.5 892.162L395.772 894.143C419.581 890.878 439.604 887.783 455.451 883.019C471.297 878.256 483.273 871.737 490.693 861.407L489.069 860.241ZM395.5 892.162L395.228 890.18C388.793 891.066 380.799 892.134 373.316 893.51C365.889 894.875 358.736 896.583 354.079 898.82L354.945 900.623L355.811 902.426C359.936 900.444 366.611 898.81 374.04 897.444C381.414 896.088 389.306 895.033 395.773 894.143L395.5 892.162ZM354.945 900.623L354.08 898.82C350.537 900.521 348.752 902.874 347.147 904.896C345.575 906.877 344.123 908.626 341.169 910.012L342.019 911.823L342.868 913.633C346.698 911.837 348.626 909.467 350.28 907.383C351.9 905.341 353.187 903.686 355.811 902.426L354.945 900.623ZM342.019 911.823L341.168 910.013C336.666 912.129 331.036 913.602 324.856 914.914C318.801 916.2 312.025 917.364 305.799 918.804L306.249 920.753L306.7 922.701C312.955 921.255 319.34 920.175 325.687 918.827C331.91 917.506 337.924 915.957 342.869 913.633L342.019 911.823ZM306.249 920.753L305.796 918.805C296.907 920.872 291.354 922.541 286.852 924.551C282.328 926.571 278.942 928.903 274.399 932.151L275.561 933.778L276.724 935.405C281.259 932.164 284.36 930.044 288.483 928.203C292.627 926.353 297.879 924.753 306.702 922.701L306.249 920.753ZM275.561 933.778L274.4 932.15C253.103 947.348 227.287 952.135 187.403 961.058L187.84 963.01L188.276 964.962C227.777 956.124 254.603 951.192 276.723 935.406L275.561 933.778ZM187.84 963.01L187.402 961.058C183.333 961.97 178.007 964.782 171.921 968.787C165.774 972.832 158.649 978.234 150.932 984.531C135.495 997.129 117.577 1013.41 100.209 1029.82C82.8355 1046.24 65.9865 1062.82 52.6825 1076.02C39.3427 1089.26 29.6367 1099.04 26.4621 1101.95L27.8142 1103.42L29.1663 1104.9C32.4179 1101.91 42.2402 1092.02 55.5002 1078.86C68.7959 1065.66 85.6181 1049.11 102.956 1032.73C120.3 1016.34 138.135 1000.14 153.461 987.63C161.125 981.375 168.133 976.068 174.119 972.129C180.166 968.15 184.971 965.703 188.277 964.962L187.84 963.01Z" fill="white" mask="url(#path-7-inside-3_5489_526)"/>
</mask>
<g mask="url(#mask2_5489_526)">
<path d="M77.4507 656.256L-686.907 1279.93M104.808 656.256L-659.55 1279.93M132.165 656.256L-632.193 1279.93M159.522 656.256L-604.836 1279.93M186.882 656.256L-577.476 1279.93M214.238 656.256L-550.12 1279.93M241.596 656.256L-522.762 1279.93M268.953 656.256L-495.405 1279.93M296.31 656.256L-468.048 1279.93M323.667 656.256L-440.691 1279.93M351.027 656.256L-413.331 1279.93M378.384 656.256L-385.974 1279.93M405.741 656.256L-358.617 1279.93M433.099 656.256L-331.259 1279.93M460.456 656.256L-303.902 1279.93M487.813 656.256L-276.545 1279.93M515.172 656.256L-249.186 1279.93M542.53 656.256L-221.829 1279.93M569.886 656.256L-194.447 1279.93M597.243 656.256L-167.09 1279.93M624.6 656.256L-139.733 1279.93M651.96 656.256L-112.374 1279.93M679.316 656.256L-85.0169 1279.93M706.674 656.256L-57.6594 1279.93M734.031 656.256L-30.302 1279.93M761.388 656.256L-2.94496 1279.93M788.746 656.256L24.4122 1279.93M816.105 656.256L51.7718 1279.93M843.462 656.256L79.1289 1279.93M870.819 656.256L106.486 1279.93M898.177 656.256L133.843 1279.93M925.534 656.256L161.201 1279.93M952.891 656.256L188.558 1279.93M980.251 656.256L215.917 1279.93M1007.61 656.256L243.274 1279.93M1034.96 656.256L270.631 1279.93M1062.32 656.256L297.988 1279.93M1089.68 656.256L325.346 1279.93M1117.04 656.256L352.703 1279.93M1144.42 656.256L380.06 1279.93M1171.78 656.256L407.419 1279.93M1199.13 656.256L434.776 1279.93M1226.49 656.256L462.134 1279.93M1253.85 656.256L489.491 1279.93M1281.21 656.256L516.848 1279.93M1308.56 656.256L544.205 1279.93M1335.92 656.256L571.565 1279.93M1363.28 656.256L598.922 1279.93M1390.64 656.256L626.279 1279.93M1417.99 656.256L653.636 1279.93M1445.35 656.256L680.993 1279.93M1472.71 656.256L708.35 1279.93M1500.07 656.256L735.71 1279.93M1527.43 656.256L763.067 1279.93M1554.78 656.256L790.424 1279.93M1582.14 656.256L817.781 1279.93M1609.5 656.256L845.139 1279.93M1636.85 656.256L872.496 1279.93M1664.21 656.256L899.855 1279.93M1691.57 656.256L927.212 1279.93M1718.93 656.256L954.569 1279.93M1746.28 656.256L981.927 1279.93M1773.64 656.256L1009.28 1279.93M1801 656.256L1036.64 1279.93M1828.36 656.256L1064 1279.93M1855.72 656.256L1091.36 1279.93M1883.07 656.256L1118.71 1279.93M1910.43 656.256L1146.07 1279.93M1937.79 656.256L1173.43 1279.93M1965.14 656.256L1200.79 1279.93M1992.5 656.256L1228.14 1279.93M2019.86 656.256L1255.5 1279.93M2047.22 656.256L1282.86 1279.93M2074.57 656.256L1310.22 1279.93M2101.93 656.256L1337.57 1279.93M2129.29 656.256L1364.93 1279.93M2156.65 656.256L1392.29 1279.93M2184.01 656.256L1419.65 1279.93M2211.36 656.256L1447.01 1279.93M2238.72 656.256L1474.36 1279.93M2266.08 656.256L1501.72 1279.93M2293.43 656.256L1529.1 1279.93M2320.79 656.256L1556.46 1279.93M2348.15 656.256L1583.82 1279.93M2375.51 656.256L1611.17 1279.93M2402.87 656.256L1638.53 1279.93M2430.22 656.256L1665.89 1279.93M2457.58 656.256L1693.25 1279.93M2484.94 656.256L1720.61 1279.93M2512.3 656.256L1747.96 1279.93M2539.65 656.256L1775.32 1279.93M2567.01 656.256L1802.68 1279.93" stroke="url(#paint2_linear_5489_526)" stroke-width="2" stroke-miterlimit="10"/>
</g>
<mask id="mask3_5489_526" style="mask-type:luminance" maskUnits="userSpaceOnUse" x="-87" y="947" width="1651" height="416">
<mask id="path-10-inside-4_5489_526" fill="white">
<path d="M1563.71 1362.7C1524.24 1088.77 1444.63 1054.96 1392.43 1048.31C1377.58 1046.42 1366.01 1053.66 1347.27 1047.9C1324.77 1040.98 1303.82 1022.78 1281.13 1016.99C1253.33 1009.9 1231.32 1025.24 1205.96 1028.45C1158.25 1034.53 1110.82 996.239 1070.83 975.864C1028.4 954.273 982.737 934.969 937.865 957.196C898.789 976.558 857.963 990.335 811.043 988.135C783.932 986.862 761.558 971.551 734.866 968.975C700.922 965.705 672.06 980.871 640.336 987.18C584.93 998.178 532.756 959.28 475.648 956.328C443.875 954.678 406.847 952.623 376.159 960.38C349.616 967.094 327.044 986.167 300.427 992.071C271.416 998.525 241.123 985.472 211.619 993.345C182.116 1001.22 157.743 1025.24 128.831 1038.35C55.9849 1071.43 -107.198 1239.87 -84.1577 1362.67"/>
</mask>
<path d="M1563.71 1362.7C1524.24 1088.77 1444.63 1054.96 1392.43 1048.31C1377.58 1046.42 1366.01 1053.66 1347.27 1047.9C1324.77 1040.98 1303.82 1022.78 1281.13 1016.99C1253.33 1009.9 1231.32 1025.24 1205.96 1028.45C1158.25 1034.53 1110.82 996.239 1070.83 975.864C1028.4 954.273 982.737 934.969 937.865 957.196C898.789 976.558 857.963 990.335 811.043 988.135C783.932 986.862 761.558 971.551 734.866 968.975C700.922 965.705 672.06 980.871 640.336 987.18C584.93 998.178 532.756 959.28 475.648 956.328C443.875 954.678 406.847 952.623 376.159 960.38C349.616 967.094 327.044 986.167 300.427 992.071C271.416 998.525 241.123 985.472 211.619 993.345C182.116 1001.22 157.743 1025.24 128.831 1038.35C55.9849 1071.43 -107.198 1239.87 -84.1577 1362.67" fill="white"/>
<path d="M1392.43 1048.31L1392.69 1046.32L1392.69 1046.32L1392.43 1048.31ZM1347.27 1047.9L1346.68 1049.81L1346.68 1049.81L1347.27 1047.9ZM1281.13 1016.99L1281.62 1015.05L1281.13 1016.99ZM1205.96 1028.45L1205.71 1026.47L1205.71 1026.47L1205.96 1028.45ZM1070.83 975.864L1071.74 974.082L1071.74 974.081L1070.83 975.864ZM937.865 957.196L936.977 955.404L936.976 955.404L937.865 957.196ZM811.043 988.135L810.949 990.133L810.949 990.133L811.043 988.135ZM734.866 968.975L735.058 966.985L735.058 966.985L734.866 968.975ZM640.336 987.18L640.725 989.142L640.726 989.142L640.336 987.18ZM475.648 956.328L475.544 958.325L475.545 958.325L475.648 956.328ZM376.159 960.38L375.669 958.441L375.669 958.441L376.159 960.38ZM300.427 992.071L299.993 990.119L299.992 990.119L300.427 992.071ZM128.831 1038.35L128.005 1036.53L128.004 1036.53L128.831 1038.35ZM1563.71 1362.7L1565.69 1362.42C1545.94 1225.33 1516.11 1148.02 1484.47 1104.11C1452.72 1060.04 1419.22 1049.71 1392.69 1046.32L1392.43 1048.31L1392.18 1050.29C1417.85 1053.56 1450.25 1063.45 1481.22 1106.44C1512.3 1149.58 1542.01 1226.14 1561.73 1362.99L1563.71 1362.7ZM1392.43 1048.31L1392.69 1046.32C1384.94 1045.34 1377.97 1046.74 1371.07 1047.57C1364.11 1048.41 1356.85 1048.75 1347.85 1045.99L1347.27 1047.9L1346.68 1049.81C1356.43 1052.81 1364.33 1052.41 1371.55 1051.54C1378.84 1050.67 1385.08 1049.39 1392.18 1050.29L1392.43 1048.31ZM1347.27 1047.9L1347.85 1045.99C1336.85 1042.61 1326.2 1036.45 1315.25 1030.28C1304.4 1024.16 1293.27 1018.02 1281.62 1015.05L1281.13 1016.99L1280.63 1018.93C1291.69 1021.75 1302.37 1027.61 1313.29 1033.76C1324.11 1039.87 1335.18 1046.28 1346.68 1049.81L1347.27 1047.9ZM1281.13 1016.99L1281.62 1015.05C1267.23 1011.38 1254.38 1013.54 1242.1 1016.93C1229.68 1020.35 1218.21 1024.88 1205.71 1026.47L1205.96 1028.45L1206.21 1030.44C1219.08 1028.81 1231.29 1024.06 1243.16 1020.79C1255.17 1017.47 1267.23 1015.51 1280.63 1018.93L1281.13 1016.99ZM1205.96 1028.45L1205.71 1026.47C1182.45 1029.43 1159.1 1021.59 1136.39 1010.29C1125.05 1004.64 1113.94 998.169 1103.12 991.807C1092.32 985.459 1081.8 979.209 1071.74 974.082L1070.83 975.864L1069.92 977.646C1079.85 982.706 1090.25 988.883 1101.09 995.255C1111.9 1001.61 1123.13 1008.15 1134.61 1013.87C1157.54 1025.28 1181.77 1033.55 1206.22 1030.44L1205.96 1028.45ZM1070.83 975.864L1071.74 974.081C1029.39 952.534 982.847 932.682 936.977 955.404L937.865 957.196L938.752 958.988C982.627 937.255 1027.41 956.012 1069.92 977.646L1070.83 975.864ZM937.865 957.196L936.976 955.404C898.058 974.688 857.584 988.315 811.137 986.137L811.043 988.135L810.949 990.133C858.342 992.355 899.52 978.428 938.752 958.988L937.865 957.196ZM811.043 988.135L811.137 986.137C797.909 985.516 785.793 981.47 773.458 977.156C761.199 972.868 748.691 968.3 735.058 966.985L734.866 968.975L734.674 970.966C747.733 972.226 759.758 976.602 772.137 980.932C784.44 985.235 797.066 989.481 810.949 990.133L811.043 988.135ZM734.866 968.975L735.058 966.985C717.734 965.315 701.76 968.359 686.246 972.555C670.609 976.784 655.736 982.078 639.946 985.218L640.336 987.18L640.726 989.142C656.659 985.973 672.08 980.529 687.291 976.416C702.625 972.269 718.055 969.365 734.674 970.966L734.866 968.975ZM640.336 987.18L639.946 985.218C612.793 990.608 586.336 983.795 559.243 975.081C532.295 966.414 504.639 955.824 475.751 954.331L475.648 956.328L475.545 958.325C503.765 959.784 530.75 970.119 558.018 978.889C585.14 987.612 612.473 994.75 640.725 989.142L640.336 987.18ZM475.648 956.328L475.752 954.331C444.064 952.685 406.708 950.595 375.669 958.441L376.159 960.38L376.649 962.319C406.986 954.651 443.685 956.671 475.544 958.325L475.648 956.328ZM376.159 960.38L375.669 958.441C362.132 961.865 349.641 968.432 337.403 974.752C325.085 981.113 313.01 987.231 299.993 990.119L300.427 992.071L300.86 994.024C314.461 991.007 326.98 984.636 339.238 978.306C351.576 971.935 363.643 965.609 376.65 962.319L376.159 960.38ZM300.427 992.071L299.992 990.119C285.86 993.263 271.376 991.666 256.405 990.186C241.554 988.717 226.256 987.369 211.104 991.412L211.619 993.345L212.135 995.277C226.487 991.448 241.087 992.69 256.011 994.166C270.816 995.631 285.983 997.334 300.861 994.023L300.427 992.071ZM211.619 993.345L211.104 991.412C196.023 995.436 182.325 1003.57 168.92 1012.2C155.435 1020.89 142.288 1030.05 128.005 1036.53L128.831 1038.35L129.657 1040.17C144.286 1033.54 157.781 1024.13 171.086 1015.56C184.472 1006.94 197.713 999.125 212.135 995.277L211.619 993.345ZM128.831 1038.35L128.004 1036.53C91.1609 1053.26 31.9123 1103.92 -15.2105 1165.65C-38.798 1196.55 -59.4209 1230.31 -72.7038 1264.11C-85.9821 1297.9 -91.9765 1331.85 -86.1234 1363.04L-84.1577 1362.67L-82.192 1362.3C-87.8593 1332.1 -82.096 1298.94 -68.981 1265.57C-55.8709 1232.22 -35.4651 1198.78 -12.0311 1168.08C34.8892 1106.62 93.6555 1056.52 129.658 1040.17L128.831 1038.35Z" fill="white" mask="url(#path-10-inside-4_5489_526)"/>
</mask>
<g mask="url(#mask3_5489_526)">
<path d="M186.359 857.729L-578 1481.4M213.716 857.729L-550.642 1481.4M241.073 857.729L-523.285 1481.4M268.432 857.729L-495.926 1481.4M295.79 857.729L-468.569 1481.4M323.146 857.729L-441.212 1481.4M350.504 857.729L-413.854 1481.4M377.861 857.729L-386.497 1481.4M405.218 857.729L-359.14 1481.4M432.576 857.729L-331.783 1481.4M459.935 857.729L-304.423 1481.4M487.292 857.729L-277.066 1481.4M514.649 857.729L-249.709 1481.4M542.007 857.729L-222.352 1481.4M569.364 857.729L-194.995 1481.4M596.721 857.729L-167.638 1481.4M624.08 857.729L-140.278 1481.4M651.437 857.729L-112.921 1481.4M678.794 857.729L-85.5639 1481.4M706.152 857.729L-58.2065 1481.4M733.509 857.729L-30.8488 1481.4M760.866 857.729L-3.49218 1481.4M788.226 857.729L23.8674 1481.4M815.583 857.729L51.2245 1481.4M842.94 857.729L78.5814 1481.4M870.297 857.729L105.939 1481.4M897.655 857.729L133.296 1481.4M925.011 857.729L160.653 1481.4M952.371 857.729L188.013 1481.4M979.728 857.729L215.37 1481.4M1007.08 857.729L242.727 1481.4M1034.44 857.729L270.084 1481.4M1061.8 857.729L297.442 1481.4M1089.16 857.729L324.798 1481.4M1116.51 857.729L352.156 1481.4M1143.87 857.729L379.515 1481.4M1171.23 857.729L406.872 1481.4M1198.59 857.729L434.229 1481.4M1225.95 857.729L461.587 1481.4M1253.3 857.729L488.97 1481.4M1280.66 857.729L516.327 1481.4M1308.02 857.729L543.684 1481.4M1335.38 857.729L571.042 1481.4M1362.73 857.729L598.399 1481.4M1390.09 857.729L625.756 1481.4M1417.45 857.729L653.113 1481.4M1444.81 857.729L680.473 1481.4M1472.16 857.729L707.83 1481.4M1499.52 857.729L735.187 1481.4M1526.88 857.729L762.544 1481.4M1554.23 857.729L789.901 1481.4M1581.59 857.729L817.258 1481.4M1608.95 857.729L844.618 1481.4M1636.31 857.729L871.975 1481.4M1663.67 857.729L899.332 1481.4M1691.02 857.729L926.69 1481.4M1718.38 857.729L954.047 1481.4M1745.74 857.729L981.404 1481.4M1773.09 857.729L1008.76 1481.4M1800.45 857.729L1036.12 1481.4M1827.84 857.729L1063.48 1481.4M1855.19 857.729L1090.83 1481.4M1882.55 857.729L1118.19 1481.4M1909.91 857.729L1145.55 1481.4M1937.27 857.729L1172.91 1481.4M1964.62 857.729L1200.27 1481.4M1991.98 857.729L1227.62 1481.4M2019.34 857.729L1254.98 1481.4M2046.7 857.729L1282.34 1481.4M2074.05 857.729L1309.69 1481.4M2101.41 857.729L1337.05 1481.4M2128.77 857.729L1364.41 1481.4M2156.13 857.729L1391.77 1481.4M2183.48 857.729L1419.13 1481.4M2210.84 857.729L1446.48 1481.4M2238.2 857.729L1473.84 1481.4M2265.56 857.729L1501.2 1481.4M2292.91 857.729L1528.56 1481.4M2320.27 857.729L1555.91 1481.4M2347.63 857.729L1583.27 1481.4M2374.99 857.729L1610.63 1481.4M2402.34 857.729L1637.98 1481.4M2429.7 857.729L1665.34 1481.4M2457.06 857.729L1692.7 1481.4M2484.42 857.729L1720.06 1481.4M2511.77 857.729L1747.42 1481.4M2539.13 857.729L1774.77 1481.4M2566.49 857.729L1802.13 1481.4M2593.85 857.729L1829.49 1481.4M2621.21 857.729L1856.85 1481.4M2648.56 857.729L1884.2 1481.4M2675.92 857.729L1911.56 1481.4M-159.791 767.294H2076.82V1596.58H-159.791V767.294Z" stroke="url(#paint3_linear_5489_526)" stroke-width="2" stroke-miterlimit="10"/>
</g>
</g>
<defs>
<linearGradient id="paint0_linear_5489_526" x1="526.259" y1="565.625" x2="526.258" y2="921.253" gradientUnits="userSpaceOnUse">
<stop offset="0.0865385" stop-color="#1F3131"/>
<stop offset="0.192308" stop-color="#183B39"/>
<stop offset="0.293269" stop-color="#006155"/>
<stop offset="0.615385" stop-color="#98C441"/>
<stop offset="0.980769" stop-color="#98C441" stop-opacity="0"/>
</linearGradient>
<linearGradient id="paint1_linear_5489_526" x1="-28.2467" y1="709.534" x2="-28.2467" y2="1102.16" gradientUnits="userSpaceOnUse">
<stop stop-color="#006155"/>
<stop offset="0.240385" stop-color="#98C441"/>
<stop offset="0.701923" stop-color="#98C441" stop-opacity="0"/>
</linearGradient>
<linearGradient id="paint2_linear_5489_526" x1="1011.64" y1="709.534" x2="1011.64" y2="1102.16" gradientUnits="userSpaceOnUse">
<stop stop-color="#006155"/>
<stop offset="0.240385" stop-color="#98C441"/>
<stop offset="0.701923" stop-color="#98C441" stop-opacity="0"/>
</linearGradient>
<linearGradient id="paint3_linear_5489_526" x1="1120.55" y1="946.71" x2="1120.55" y2="1361.74" gradientUnits="userSpaceOnUse">
<stop stop-color="#006155"/>
<stop offset="0.115385" stop-color="#98C441"/>
<stop offset="0.552885" stop-color="#98C441" stop-opacity="0"/>
</linearGradient>
<clipPath id="clip0_5489_526">
<rect width="1440" height="1151" fill="white"/>
</clipPath>
</defs>
</svg>
