<?xml version="1.0" encoding="UTF-8"?><svg id="Layer_2" xmlns="http://www.w3.org/2000/svg" viewBox="0 0 480.313 163"><g id="Components"><g id="fe6d9fd8-7942-4750-8c40-fc338eb17cb2_5"><path d="M118.563,54.1882h-60.1052c-14.4268,0-26.1224,12.3407-26.1225,27.2939,0,14.9532,11.6952,26.6019,26.1219,26.6019h49.3268l-.027-32.3353h-46.6018l-5.8047,10.7786h41.656v10.7787h-38.4362c-8.656,0-15.786-6.852-15.786-15.8239,0-8.9718,7.0169-16.5113,15.6729-16.5114h60.1058v53.8923H21.5586V43.4095h70.2009c8.6555,0,16.0275-7.2093,16.0275-16.1812s-7.371-16.1502-16.0275-16.1503H10.7806v107.785H.0193L0,.3l118.563-.0006v53.8888Z" style="fill:#fff;"/><path d="M91.6188,21.8528c2.8852,0,5.3651,2.4794,5.3652,5.47,0,2.9907-2.3102,5.3061-5.1956,5.3061H21.5598v-10.7767l70.059.0006Z" style="fill:#fff;"/><path d="M173.449,64.6385c4.83,0,9.003.8344,12.52,2.5027,3.57,1.6178,6.353,3.716,8.348,6.2944,2.047,2.5278,3.412,5.1571,4.095,7.8872h-11.812c-1.05-2.174-2.626-3.9436-4.725-5.3087-2.048-1.4155-4.909-2.1229-8.584-2.123-3.307,0-6.247.7326-8.82,2.1988-2.52,1.4662-4.514,3.6154-5.984,6.4466-1.418,2.8312-2.127,6.2184-2.127,10.1619,0,3.7413.709,6.9773,2.127,9.7076,1.417,2.73,3.412,4.828,5.984,6.294,2.625,1.466,5.696,2.2,9.214,2.2,2.625,0,5.014-.506,7.166-1.517,2.152-1.012,3.911-2.604,5.276-4.778,1.193-1.901,1.905-4.226,2.136-6.9771h-20.589l5.25-8.7212h25.33v29.9563h-10.631v-5.649c-1.464,2.079-3.564,3.709-6.3,4.89-2.992,1.264-6.326,1.896-10,1.896-5.198,0-9.844-1.137-13.939-3.413-4.095-2.325-7.297-5.561-9.607-9.707-2.31-4.146-3.465-8.8731-3.465-14.1816,0-5.4603,1.26-10.3139,3.78-14.5607,2.52-4.2975,5.985-7.6087,10.395-9.9344,4.41-2.3762,9.397-3.5648,14.962-3.5648Z" style="fill:#fff;"/><path d="M244.468,78.7449c3.937,0,7.533.8848,10.788,2.6543,3.255,1.719,5.801,4.1708,7.639,7.3559,1.889,3.1346,2.834,6.6738,2.834,10.6173s-.945,7.5076-2.834,10.6936c-1.838,3.134-4.384,5.586-7.639,7.355-3.255,1.719-6.851,2.579-10.788,2.579s-7.534-.86-10.789-2.579c-3.254-1.769-5.827-4.221-7.717-7.355-1.838-3.186-2.757-6.75-2.757-10.6936s.919-7.4827,2.757-10.6173c1.89-3.1852,4.463-5.6369,7.717-7.3559,3.255-1.7695,6.851-2.6543,10.789-2.6543ZM244.468,87.087c-2.1,0-3.912.48-5.434,1.4406-1.523.9101-2.704,2.3008-3.544,4.1714-.787,1.82-1.181,4.0446-1.181,6.6734s.394,4.8786,1.181,6.7496c.84,1.82,2.021,3.21,3.544,4.171,1.522.91,3.334,1.365,5.434,1.365s3.911-.455,5.433-1.365c1.523-.961,2.678-2.351,3.465-4.171.84-1.871,1.26-4.121,1.26-6.7496,0-2.4647-.369-4.574-1.107-6.3277l-.305-.6914c-.781-1.6973-1.886-2.9726-3.313-3.8257-1.522-.9605-3.333-1.4406-5.433-1.4406Z" style="fill:#fff; fill-rule:evenodd;"/><path d="M282.621,84.3626c.919-1.5754,2.309-2.867,4.173-3.8738,2.205-1.1629,4.778-1.7445,7.717-1.7445,3.413,0,6.484.8343,9.214,2.5027,2.782,1.6684,4.961,4.0702,6.536,7.2048,1.627,3.0839,2.441,6.7239,2.441,10.92s-.814,7.8622-2.441,10.9962c-1.575,3.084-3.754,5.461-6.536,7.129-2.73,1.669-5.801,2.503-9.214,2.503-2.834,0-5.355-.607-7.56-1.82-1.922-1.103-3.366-2.455-4.33-4.057v4.739h-10.868v-53.0862h10.868v18.5868ZM292.149,86.9347c-1.943,0-3.649.5312-5.119,1.5929-1.47,1.0617-2.598,2.5529-3.386,4.474-.787,1.8706-1.181,3.9941-1.181,6.3702s.394,4.5252,1.181,6.4462c.788,1.871,1.916,3.337,3.386,4.399,1.47,1.061,3.176,1.592,5.119,1.593,2.047,0,3.78-.506,5.197-1.518,1.418-1.011,2.468-2.426,3.15-4.246.735-1.871,1.103-4.096,1.103-6.6742,0-3.8929-.814-6.9264-2.441-9.1003-1.575-2.2246-3.912-3.3368-7.009-3.3368Z" style="fill:#fff; fill-rule:evenodd;"/><path d="M336.891,78.7449c3.727,0,6.851.4548,9.371,1.3648,2.52.91,4.384,2.2754,5.591,4.0955,1.26,1.8201,1.89,4.0951,1.89,6.8251v18.4277c0,1.517.131,3.11.394,4.778.262,1.669.577,3.211.945,4.627h-10.71c-.105-.405-.184-.709-.236-.911,0-.202-.053-.505-.158-.91-.105-.606-.21-1.264-.315-1.972-.057-.385-.106-.784-.147-1.199-1.148,1.735-2.777,3.147-4.893,4.233-2.31,1.214-5.04,1.82-8.19,1.82-2.729,0-5.197-.455-7.402-1.365-2.152-.96-3.858-2.326-5.118-4.095-1.26-1.82-1.891-3.994-1.891-6.522,0-2.983.841-5.284,2.521-6.902,1.732-1.6678,3.674-2.8054,5.827-3.4121,2.205-.6066,4.698-1.0866,7.481-1.4405l3.308-.3791c1.837-.2023,3.28-.4556,4.33-.7589,1.103-.3033,1.969-.7833,2.599-1.4406.63-.6572.945-1.6179.945-2.8818,0-1.5166-.551-2.6794-1.653-3.4883-1.103-.809-2.678-1.2138-4.726-1.2138-1.994,0-3.622.4049-4.882,1.2138-1.207.7583-1.968,1.82-2.283,3.1851h-11.655c.525-2.4268,1.601-4.4996,3.229-6.2186,1.627-1.7695,3.78-3.1097,6.457-4.0197,2.677-.9606,5.801-1.4406,9.371-1.4406ZM343.033,99.1553c-.706.8072-1.493,1.4107-2.362,1.8097-1.102.505-2.756.935-4.961,1.289-2.94.506-5.066,1.113-6.379,1.821-1.312.657-1.968,1.845-1.968,3.564,0,1.415.603,2.528,1.81,3.336,1.208.809,2.757,1.214,4.647,1.214,1.785,0,3.36-.379,4.725-1.138,1.417-.809,2.52-1.896,3.307-3.261.787-1.415,1.181-3.008,1.181-4.778v-3.8567Z" style="fill:#fff; fill-rule:evenodd;"/><path d="M217.25,118.862h-10.867v-48.03l10.867-5.0562v53.0862Z" style="fill:#fff;"/><path d="M372.907,118.862h-10.867v-48.03l10.867-5.0562v53.0862Z" style="fill:#fff;"/><path d="M227.47,13.2717c4.095.0001,7.691.9354,10.788,2.806,3.15,1.8201,5.617,4.5251,7.402,8.1147,1.785,3.539,2.704,7.811,2.757,12.8161h-30.744c.136,1.6167.566,3.0831,1.292,4.3989.945,1.6177,2.205,2.8816,3.78,3.7916,1.627.8595,3.465,1.2889,5.512,1.289,1.942,0,3.544-.3032,4.804-.9099,1.26-.6067,2.179-1.441,2.756-2.5027h11.34c-1.155,3.5391-3.413,6.3451-6.773,8.418-3.307,2.0223-7.402,3.0334-12.284,3.0334-4.41,0-8.242-.8595-11.497-2.5785-3.203-1.719-5.671-4.1201-7.403-7.2042-1.733-3.1346-2.599-6.7244-2.599-10.769,0-3.9435.945-7.4828,2.835-10.6174,1.89-3.1851,4.411-5.6621,7.561-7.4316,3.202-1.7695,6.693-2.6544,10.473-2.6544ZM227.863,21.3106c-1.942,0-3.701.48-5.276,1.4406-1.522.9099-2.729,2.1739-3.622,3.7916-.582,1.0225-.973,2.11-1.176,3.2615h19.845c-.369-2.073-1.185-3.8426-2.447-5.3086-1.733-2.1235-4.174-3.1851-7.324-3.1851Z" style="fill:#fff; fill-rule:evenodd;"/><path d="M292.735,53.3889h-10.866v-4.4837c-.925,1.5769-2.343,2.8695-4.253,3.8771-2.153,1.1628-4.699,1.7445-7.639,1.7445-3.412,0-6.509-.8344-9.292-2.5027-2.729-1.6684-4.909-4.0449-6.536-7.129-1.575-3.1345-2.362-6.7998-2.362-10.9958s.787-7.8367,2.362-10.9207c1.627-3.1346,3.807-5.5364,6.536-7.2048,2.783-1.6683,5.88-2.5027,9.292-2.5027,2.835,0,5.355.6322,7.56,1.8961,1.923,1.0583,3.367,2.3858,4.332,3.9825V.3033h10.866v53.0856ZM272.34,21.4616c-2.047,0-3.78.5059-5.198,1.517-1.417,1.0111-2.493,2.452-3.228,4.3224-.682,1.8201-1.024,4.0198-1.024,6.5983,0,3.8928.788,6.9516,2.363,9.1761,1.627,2.1739,3.99,3.2609,7.087,3.2609,1.942,0,3.648-.5311,5.118-1.5928,1.47-1.0617,2.599-2.5277,3.387-4.3982.787-1.9212,1.181-4.0699,1.181-6.446s-.394-4.5002-1.181-6.3708c-.788-1.9212-1.917-3.4124-3.387-4.4741-1.47-1.0617-3.176-1.5928-5.118-1.5928Z" style="fill:#fff; fill-rule:evenodd;"/><path d="M386.71,13.2717c3.937,0,7.533.8849,10.788,2.6544,3.255,1.7189,5.801,4.1707,7.639,7.3558,1.89,3.1346,2.835,6.6738,2.835,10.6174s-.945,7.508-2.835,10.6932c-1.838,3.1345-4.384,5.5863-7.639,7.3558-3.255,1.719-6.851,2.5785-10.788,2.5785s-7.534-.8595-10.788-2.5785c-3.255-1.7695-5.828-4.2212-7.718-7.3558-1.838-3.1852-2.756-6.7497-2.756-10.6932s.918-7.4828,2.756-10.6174c1.89-3.1851,4.463-5.6369,7.718-7.3558,3.254-1.7696,6.85-2.6544,10.788-2.6544ZM386.71,21.6139c-2.1,0-3.911.48-5.434,1.4405-1.522.9101-2.703,2.3008-3.543,4.1714-.788,1.8201-1.182,4.0445-1.182,6.6735s.394,4.8786,1.182,6.7492c.84,1.8201,2.021,3.2108,3.543,4.1714,1.523.91,3.334,1.3648,5.434,1.3648s3.911-.4548,5.433-1.3648c1.523-.9606,2.678-2.3513,3.465-4.1714.84-1.8706,1.26-4.1203,1.26-6.7492s-.42-4.8534-1.26-6.6735c-.787-1.8706-1.942-3.2613-3.465-4.1714-1.522-.9605-3.333-1.4405-5.433-1.4405Z" style="fill:#fff; fill-rule:evenodd;"/><path d="M471.414,14.409h8.112v7.9631h-8.112v17.5182c0,2.0222.394,3.5387,1.182,4.5499.84.9606,2.205,1.4412,4.095,1.4412.997,0,2.204-.1516,3.622-.4549v7.5075c-.683.2527-1.628.4555-2.835.6072-1.155.1516-2.389.2274-3.701.2274-2.468,0-4.673-.3796-6.615-1.1379-1.89-.7584-3.412-2.0222-4.567-3.7917-1.155-1.8201-1.733-4.2219-1.733-7.2048v-19.2621h-6.93v-7.9631h6.93v-6.4717l10.552-5.0555v11.5272Z" style="fill:#fff;"/><path d="M200.643,53.3895h-10.71V14.409h10.71v38.9805Z" style="fill:#fff;"/><path d="M345.746,13.2717c2.835.0001,5.303.5811,7.403,1.7439,2.152,1.1123,3.78,2.7303,4.882,4.8537,1.155,2.0729,1.732,4.5253,1.732,7.3565v26.1637h-10.946v-24.8747c0-2.1234-.472-3.7668-1.417-4.9296-.945-1.1627-2.363-1.7439-4.253-1.7439-2.362,0-4.173.7838-5.433,2.3511-1.207,1.5167-1.811,3.7159-1.811,6.5976v22.5995h-10.868v-24.8747c0-2.1234-.472-3.7668-1.417-4.9296-.945-1.1627-2.363-1.7439-4.252-1.7439-1.575,0-2.914.3538-4.016,1.0615-1.05.7078-1.864,1.7442-2.442,3.1093-.525,1.3145-.787,2.9072-.787,4.7779v22.5995h-10.867V14.409h10.473v4.5338c1.058-1.75,2.449-3.0849,4.174-4.003,2.047-1.1122,4.358-1.6681,6.93-1.6681,2.467.0001,4.672.6317,6.614,1.8955,1.676,1.0906,2.96,2.4831,3.855,4.1759,1.203-1.8096,2.753-3.2271,4.65-4.2517,2.205-1.2134,4.804-1.8197,7.796-1.8197Z" style="fill:#fff;"/><path d="M436.439,13.2717c2.73,0,5.092.5558,7.087,1.6681,1.995,1.1122,3.517,2.7303,4.567,4.8537,1.05,2.1235,1.575,4.6768,1.575,7.6598v25.9362h-10.867v-25.178c0-1.9718-.446-3.5646-1.339-4.778-.892-1.2132-2.415-1.8196-4.567-1.8196-1.365,0-2.678.3536-3.937,1.0614-1.208.7078-2.205,1.8201-2.993,3.3368-.735,1.5167-1.102,3.4127-1.102,5.6877v21.6897h-10.868V14.409h10.553v4.9373c.987-1.5517,2.378-2.9201,4.173-4.1033,1.995-1.3145,4.568-1.9713,7.718-1.9713Z" style="fill:#fff;"/><path d="M163.605.3033c3.99,0,7.586.6821,10.788,2.0471,3.255,1.3145,5.802,3.2358,7.639,5.7636,1.89,2.5279,2.835,5.5114,2.835,8.9494,0,3.4884-.945,6.5219-2.835,9.1003-1.837,2.5784-4.384,4.5755-7.639,5.9911-3.254,1.365-6.851,2.0477-10.788,2.0477h-7.875v19.1864h-11.418V.3033h19.293ZM155.73,25.1016h7.087c2.835,0,5.251-.6568,7.246-1.9713,1.995-1.3651,2.992-3.3875,2.992-6.0669,0-2.7807-.997-4.8036-2.992-6.0676-1.943-1.3145-4.358-1.9713-7.246-1.9713h-7.087v16.0771Z" style="fill:#fff; fill-rule:evenodd;"/><path d="M196.036,0c2.935,0,5.315,2.292,5.315,5.1191s-2.38,5.1192-5.315,5.1192h-1.575c-2.936-.0001-5.315-2.2921-5.315-5.1192S191.525,0,194.461,0h1.575Z" style="fill:#fff;"/><path d="M146.49,163v-21h13.44v3.3h-9.69v5.61h8.19v3.18h-8.19v8.91h-3.75Z" style="fill:#fff;"/><path d="M167.148,163v-21h14.7v3.21h-10.95v5.43h9.3v3.15h-9.3v6h11.1v3.21h-14.85Z" style="fill:#fff;"/><path d="M189.739,163v-21h6.9c6.3,0,11.04,4.2,11.04,10.5s-4.74,10.5-11.04,10.5h-6.9ZM193.489,159.79h2.85c4.74,0,7.53-2.64,7.53-7.29s-2.79-7.29-7.53-7.29h-2.85v14.58Z" style="fill:#fff;"/><path d="M215.348,163v-21h14.7v3.21h-10.95v5.43h9.3v3.15h-9.3v6h11.1v3.21h-14.85Z" style="fill:#fff;"/><path d="M237.94,163v-21h8.01c4.65,0,7.71,2.37,7.71,6.27,0,3.18-2.25,5.25-5.4,5.94l6.12,8.79h-4.41l-5.67-8.55h-2.61v8.55h-3.75ZM241.69,151.45h3.93c2.43,0,4.23-.93,4.23-3.18s-1.77-3.24-4.14-3.24h-4.02v6.42Z" style="fill:#fff;"/><path d="M259.244,163l7.83-21h4.17l7.71,21h-4.02l-1.5-4.38h-8.73l-1.53,4.38h-3.93ZM265.784,155.47h6.57l-1.41-4.17c-.54-1.5-1.14-3.27-1.83-5.37h-.03c-.69,2.1-1.29,3.84-1.86,5.43l-1.44,4.11Z" style="fill:#fff;"/><path d="M285.495,163v-21h3.75v17.58h8.79v3.42h-12.54Z" style="fill:#fff;"/></g></g></svg>