<svg width="1414" height="762" viewBox="0 0 1414 762" fill="none" xmlns="http://www.w3.org/2000/svg">
<style>
  .wave-animation {
    animation: waveMove 8s ease-in-out infinite;
  }
  
  .wave-animation-2 {
    animation: waveMove 8s ease-in-out infinite 2s;
  }
  
  .wave-animation-3 {
    animation: waveMove 8s ease-in-out infinite 4s;
  }
  
  @keyframes waveMove {
    0%, 100% {
      transform: translateX(0px);
    }
    50% {
      transform: translateX(20px);
    }
  }
</style>
<g clip-path="url(#clip0_4759_4028)">
<rect width="1414" height="762" fill="#1F3131"/>
<rect width="1414" height="762" fill="url(#paint0_linear_4759_4028)"/>
<mask id="mask0_4759_4028" style="mask-type:luminance" maskUnits="userSpaceOnUse" x="-131" y="625" width="1824" height="392">
<mask id="path-1-inside-1_4759_4028" fill="white">
<path d="M-130.492 1016.19C-86.8806 758.205 1.07791 726.369 58.7539 720.099C75.1627 718.328 87.9462 725.142 108.662 719.718C133.52 713.203 156.661 696.059 181.738 690.607C212.457 683.929 236.77 698.376 264.79 701.401C317.506 707.125 369.921 671.064 414.105 651.875C460.987 631.541 511.44 613.361 561.02 634.294C604.196 652.529 649.306 665.504 701.149 663.432C731.105 662.233 755.827 647.814 785.319 645.388C822.825 642.308 854.715 656.59 889.768 662.532C950.987 672.89 1008.64 636.257 1071.74 633.476C1106.84 631.923 1147.76 629.988 1181.66 637.292C1210.99 643.616 1235.93 661.578 1265.34 667.139C1297.4 673.217 1330.87 660.924 1363.47 668.338C1397.21 676.025 1423 698.376 1454.94 710.723C1535.43 741.878 1715.74 900.514 1690.28 1016.17"/>
</mask>
<path d="M-130.492 1016.19C-86.8806 758.205 1.07791 726.369 58.7539 720.099C75.1627 718.328 87.9462 725.142 108.662 719.718C133.52 713.203 156.661 696.059 181.738 690.607C212.457 683.929 236.77 698.376 264.79 701.401C317.506 707.125 369.921 671.064 414.105 651.875C460.987 631.541 511.44 613.361 561.02 634.294C604.196 652.529 649.306 665.504 701.149 663.432C731.105 662.233 755.827 647.814 785.319 645.388C822.825 642.308 854.715 656.59 889.768 662.532C950.987 672.89 1008.64 636.257 1071.74 633.476C1106.84 631.923 1147.76 629.988 1181.66 637.292C1210.99 643.616 1235.93 661.578 1265.34 667.139C1297.4 673.217 1330.87 660.924 1363.47 668.338C1397.21 676.025 1423 698.376 1454.94 710.723C1535.43 741.878 1715.74 900.514 1690.28 1016.17" fill="white" class="wave-animation"/>
<path d="M58.7539 720.099L58.3856 716.688L58.3832 716.689L58.7539 720.099ZM108.662 719.718L109.531 723.037L109.531 723.037L108.662 719.718ZM181.738 690.607L181.009 687.255L181.738 690.607ZM264.79 701.401L265.161 697.99L265.159 697.99L264.79 701.401ZM414.105 651.875L412.739 648.727L412.738 648.728L414.105 651.875ZM561.02 634.294L562.355 631.133L562.355 631.133L561.02 634.294ZM701.149 663.432L701.286 666.86L701.286 666.86L701.149 663.432ZM785.319 645.388L785.038 641.968L785.038 641.968L785.319 645.388ZM889.768 662.532L889.195 665.915L889.196 665.915L889.768 662.532ZM1071.74 633.476L1071.89 636.904L1071.89 636.904L1071.74 633.476ZM1181.66 637.292L1182.39 633.939L1182.39 633.938L1181.66 637.292ZM1265.34 667.139L1265.98 663.768L1265.98 663.768L1265.34 667.139ZM1363.47 668.338L1364.23 664.993L1364.23 664.993L1363.47 668.338ZM1454.94 710.723L1456.18 707.523L1456.18 707.523L1454.94 710.723ZM-130.492 1016.19L-127.109 1016.77C-105.349 888.041 -72.603 816.283 -38.523 775.967C-4.60278 735.839 30.8765 726.581 59.1247 723.51L58.7539 720.099L58.3832 716.689C28.9553 719.887 -8.38265 729.681 -43.7635 771.537C-78.9846 813.203 -112.024 886.357 -133.875 1015.62L-130.492 1016.19ZM58.7539 720.099L59.1222 723.511C66.8591 722.675 73.6233 723.858 81.7426 724.691C89.7698 725.515 98.6078 725.897 109.531 723.037L108.662 719.718L107.793 716.399C98.0001 718.963 90.0886 718.65 82.443 717.865C74.8894 717.09 67.0575 715.752 58.3856 716.688L58.7539 720.099ZM108.662 719.718L109.531 723.037C122.346 719.678 134.669 713.594 146.605 707.856C158.674 702.054 170.381 696.587 182.467 693.96L181.738 690.607L181.009 687.255C168.019 690.079 155.616 695.91 143.631 701.672C131.513 707.498 119.835 713.243 107.792 716.399L108.662 719.718ZM181.738 690.607L182.467 693.96C197.098 690.779 210.273 692.598 223.491 695.705C236.503 698.764 250.138 703.27 264.422 704.812L264.79 701.401L265.159 697.99C251.422 696.507 238.89 692.276 225.061 689.025C211.437 685.823 197.097 683.757 181.009 687.255L181.738 690.607ZM264.79 701.401L264.42 704.812C291.647 707.768 318.581 699.918 343.987 689.139C356.707 683.742 369.138 677.568 381.085 671.581C393.068 665.575 404.531 659.773 415.471 655.022L414.105 651.875L412.738 648.728C401.586 653.571 389.929 659.473 378.01 665.446C366.054 671.438 353.802 677.52 341.307 682.822C316.28 693.44 290.648 700.758 265.161 697.99L264.79 701.401ZM414.105 651.875L415.47 655.023C462.445 634.648 511.602 617.153 559.686 637.455L561.02 634.294L562.355 631.133C511.277 609.568 459.528 628.434 412.739 648.727L414.105 651.875ZM561.02 634.294L559.685 637.455C603.119 655.799 648.754 668.959 701.286 666.86L701.149 663.432L701.012 660.004C649.858 662.048 605.273 649.26 562.355 631.133L561.02 634.294ZM701.149 663.432L701.286 666.86C716.746 666.241 730.795 662.21 744.388 658.158C758.086 654.074 771.279 649.985 785.6 648.807L785.319 645.388L785.038 641.968C769.867 643.216 755.953 647.55 742.427 651.582C728.797 655.645 715.508 659.423 701.012 660.004L701.149 663.432ZM785.319 645.388L785.6 648.807C803.838 647.31 820.788 650.024 837.693 653.92C854.414 657.775 871.562 662.926 889.195 665.915L889.768 662.532L890.341 659.15C872.921 656.197 856.598 651.236 839.234 647.234C822.054 643.273 804.306 640.386 785.038 641.968L785.319 645.388ZM889.768 662.532L889.196 665.915C920.612 671.231 950.971 664.46 980.954 656.24C1011.14 647.964 1040.83 638.273 1071.89 636.904L1071.74 633.476L1071.59 630.049C1039.54 631.461 1008.86 641.476 979.14 649.622C949.219 657.825 920.144 664.192 890.34 659.15L889.768 662.532ZM1071.74 633.476L1071.89 636.904C1107.12 635.345 1147.55 633.454 1180.94 640.646L1181.66 637.292L1182.39 633.938C1147.96 626.521 1106.56 628.501 1071.58 630.049L1071.74 633.476ZM1181.66 637.292L1180.94 640.646C1195.2 643.721 1208.44 649.634 1222.09 655.642C1235.63 661.601 1249.56 667.646 1264.71 670.51L1265.34 667.139L1265.98 663.768C1251.72 661.071 1238.47 655.355 1224.86 649.362C1211.35 643.417 1197.45 637.187 1182.39 633.939L1181.66 637.292ZM1265.34 667.139L1264.7 670.51C1281.28 673.653 1298.16 672.033 1314.49 670.657C1330.99 669.265 1347 668.112 1362.71 671.684L1363.47 668.338L1364.23 664.993C1347.34 661.151 1330.31 662.437 1313.91 663.819C1297.34 665.216 1281.46 666.703 1265.98 663.768L1265.34 667.139ZM1363.47 668.338L1362.71 671.684C1379.08 675.413 1393.61 682.718 1408.22 690.786C1422.73 698.795 1437.45 707.641 1453.71 713.923L1454.94 710.723L1456.18 707.523C1440.49 701.458 1426.35 692.955 1411.54 684.779C1396.84 676.664 1381.6 668.95 1364.23 664.993L1363.47 668.338ZM1454.94 710.723L1453.71 713.923C1493.27 729.238 1558.05 776.276 1609.79 834.047C1635.62 862.89 1658.06 894.251 1672.45 925.468C1686.86 956.707 1693.08 987.512 1686.93 1015.43L1690.28 1016.17L1693.63 1016.9C1700.22 986.994 1693.44 954.6 1678.68 922.594C1663.92 890.566 1641.02 858.636 1614.9 829.469C1562.73 771.22 1497.1 723.363 1456.18 707.523L1454.94 710.723Z" fill="white" mask="url(#path-1-inside-1_4759_4028)"/>
</mask>
<g mask="url(#mask0_4759_4028)">
<path d="M-523.018 471.487L-1367.58 1160.6M-492.79 471.487L-1337.35 1160.6M-462.563 471.487L-1307.12 1160.6M-432.335 471.487L-1276.9 1160.6M-402.105 471.487L-1246.67 1160.6M-371.878 471.487L-1216.44 1160.6M-341.65 471.487L-1186.21 1160.6M-311.422 471.487L-1155.98 1160.6M-281.194 471.487L-1125.76 1160.6M-250.967 471.487L-1095.53 1160.6M-220.736 471.487L-1065.3 1160.6M-190.509 471.487L-1035.07 1160.6M-160.281 471.487L-1004.84 1160.6M-130.053 471.487L-974.614 1160.6M-99.8256 471.487L-944.386 1160.6M-69.5979 471.487L-914.159 1160.6M-39.3675 471.487L-883.928 1160.6M-9.13986 471.487L-853.701 1160.6M21.0875 471.487L-823.473 1160.6M51.3156 471.487L-793.245 1160.6M81.5438 471.487L-763.017 1160.6M111.771 471.487L-732.79 1160.6M142.001 471.487L-702.56 1160.6M172.229 471.487L-672.332 1160.6M202.456 471.487L-642.105 1160.6M232.684 471.487L-611.876 1160.6M262.912 471.487L-581.648 1160.6M293.14 471.487L-551.421 1160.6M323.367 471.487L-521.193 1160.6M353.598 471.487L-490.963 1160.6M383.825 471.487L-460.736 1160.6M414.053 471.487L-430.508 1160.6M444.281 471.487L-400.28 1160.6M474.508 471.487L-370.052 1160.6M504.736 471.487L-339.825 1160.6M534.966 471.487L-309.594 1160.6M565.194 471.487L-279.367 1160.6M595.421 471.487L-249.139 1160.6M625.65 471.487L-218.911 1160.6M655.877 471.487L-188.684 1160.6M686.107 471.487L-158.427 1160.6M716.334 471.487L-128.2 1160.6M746.562 471.487L-97.9714 1160.6M776.79 471.487L-67.7433 1160.6M807.017 471.487L-37.516 1160.6M837.245 471.487L-7.28832 1160.6M867.475 471.487L22.942 1160.6M897.703 471.487L53.1697 1160.6M927.931 471.487L83.3972 1160.6M958.159 471.487L113.625 1160.6M988.386 471.487L143.853 1160.6M1018.61 471.487L174.08 1160.6M1048.84 471.487L204.311 1160.6M1079.07 471.487L234.538 1160.6M1109.3 471.487L264.766 1160.6M1139.53 471.487L294.994 1160.6M1169.76 471.487L325.222 1160.6M1199.98 471.487L355.449 1160.6M1230.21 471.487L385.677 1160.6M1260.44 471.487L415.907 1160.6M1290.67 471.487L446.134 1160.6M1320.9 471.487L476.363 1160.6M1351.15 471.487L506.591 1160.6M1381.38 471.487L536.818 1160.6M1411.61 471.487L567.048 1160.6M1441.84 471.487L597.276 1160.6M1472.06 471.487L627.503 1160.6M1502.29 471.487L657.731 1160.6M1532.52 471.487L687.959 1160.6M1562.75 471.487L718.187 1160.6M1592.97 471.487L748.414 1160.6M1623.21 471.487L778.645 1160.6M1653.43 471.487L808.872 1160.6M1683.66 471.487L839.1 1160.6M1713.89 471.487L869.328 1160.6M1744.12 471.487L899.555 1160.6M1774.34 471.487L929.783 1160.6M1804.57 471.487L960.013 1160.6M1834.8 471.487L990.241 1160.6M1865.03 471.487L1020.47 1160.6M1895.26 471.487L1050.7 1160.6M1925.49 471.487L1080.92 1160.6M1955.71 471.487L1111.15 1160.6M1985.94 471.487L1141.38 1160.6M2016.17 471.487L1171.61 1160.6M2046.4 471.487L1201.84 1160.6M2076.63 471.487L1232.07 1160.6M2106.85 471.487L1262.29 1160.6M2137.08 471.487L1292.52 1160.6M2167.31 471.487L1322.75 1160.6M2197.54 471.487L1352.98 1160.6M2227.77 471.487L1383.21 1160.6M1765.68 1342.41H-705.614V426.104H1765.68V1342.41Z" stroke="url(#paint1_linear_4759_4028)" stroke-width="2" stroke-miterlimit="10" class="wave-animation-2"/>
</g>
</g>
<defs>
<linearGradient id="paint0_linear_4759_4028" x1="874.719" y1="982.04" x2="874.474" y2="153.051" gradientUnits="userSpaceOnUse">
<stop stop-color="#006155"/>
<stop offset="0.5" stop-color="#006155" stop-opacity="0"/>
</linearGradient>
<linearGradient id="paint1_linear_4759_4028" x1="509.193" y1="624.346" x2="509.193" y2="1017.29" gradientUnits="userSpaceOnUse">
<stop stop-color="#006155"/>
<stop offset="0.461538" stop-color="#98C441"/>
<stop offset="0.8" stop-color="#98C441" stop-opacity="0"/>
</linearGradient>
<clipPath id="clip0_4759_4028">
<rect width="1414" height="762" fill="white"/>
</clipPath>
</defs>
</svg>
