<svg width="55" height="22" viewBox="0 0 55 22" fill="none" xmlns="http://www.w3.org/2000/svg">
<path d="M24.552 0C21.528 3.456 19.08 7.272 18.792 11.808H23.472V21.744H13.68V14.76C13.68 7.776 15.48 3.744 18.792 0H24.552ZM10.872 0C7.848 3.456 5.4 7.272 5.112 11.808H9.792V21.744H0V14.76C0 7.776 1.8 3.744 5.112 0H10.872Z" fill="url(#paint0_linear_4761_332)"/>
<path d="M29.8406 21.744C32.8646 18.288 35.3126 14.472 35.6006 9.936H30.9206V0H40.7126V6.984C40.7126 13.968 38.9126 18 35.6006 21.744H29.8406ZM43.5206 21.744C46.5446 18.288 48.9926 14.472 49.2806 9.936H44.6006V0H54.3926V6.984C54.3926 13.968 52.5926 18 49.2806 21.744H43.5206Z" fill="url(#paint1_linear_4761_332)"/>
<defs>
<linearGradient id="paint0_linear_4761_332" x1="27.1963" y1="0" x2="27.1963" y2="21.744" gradientUnits="userSpaceOnUse">
<stop stop-color="#DFDAD4"/>
<stop offset="1" stop-color="#98C441"/>
</linearGradient>
<linearGradient id="paint1_linear_4761_332" x1="27.1963" y1="0" x2="27.1963" y2="21.744" gradientUnits="userSpaceOnUse">
<stop stop-color="#DFDAD4"/>
<stop offset="1" stop-color="#98C441"/>
</linearGradient>
</defs>
</svg>
